<svg width="150" height="352" viewBox="0 0 150 352" fill="none" xmlns="http://www.w3.org/2000/svg"><g opacity=".03" fill="#fff"><path fill-rule="evenodd" clip-rule="evenodd" d="M148.191 1.034c33.416 0 65.86 11.274 91.44 31.75v-.002c33.416 26.73 53.07 64.736 55.447 106.991 2.277 41.717-13.326 82.533-42.79 111.975l-97.671 96.318c-3.784 3.747-10.346 3.714-14.13-.033l-96.291-96.216C14.665 222.309-.971 181.46 1.339 139.773 3.682 97.52 23.37 59.514 56.752 32.783c25.547-20.475 58.025-31.75 91.439-31.75zM82.567 147.908c0 36.165 29.43 65.573 65.624 65.573 36.194 0 65.659-29.407 65.625-65.573 0-36.165-29.43-65.573-65.625-65.573-36.193 0-65.624 29.407-65.624 65.573z"/><path d="M239.631 32.783l-.312.39.812.65v-1.04h-.5zm0 0l.313-.391-.813-.65v1.04h.5zm55.447 106.99l.5-.028v-.001l-.5.029zm-42.79 111.975l.351.356.002-.003-.353-.353zm-97.671 96.318l-.351-.356-.001.001.352.355zm-14.13-.033l-.353.353.002.002.351-.355zm-96.291-96.216l-.353.354.353-.354zM1.339 139.773l-.5-.027.5.027zm55.413-106.99l.312.39-.313-.39zm157.064 115.125h-.5v.001l.5-.001zm26.128-115.515C214.273 11.846 181.718.533 148.191.533v1c33.305 0 65.638 11.238 91.128 31.64l.625-.78zm-.813.39h1-1zm56.447 106.961c-2.386-42.397-22.109-80.535-55.634-107.352l-.625.78c33.306 26.642 52.891 64.517 55.26 106.629l.999-.057zm-42.937 112.357c29.566-29.542 45.221-70.496 42.937-112.356l-.999.055c2.269 41.576-13.281 82.253-42.644 111.594l.706.707zm-97.673 96.321l97.671-96.318-.702-.712-97.671 96.318.702.712zm-14.832-.034c3.976 3.938 10.852 3.976 14.832.033l-.703-.71c-3.587 3.552-9.835 3.523-13.426-.034l-.703.711zm-96.293-96.217l96.291 96.215.707-.707-96.292-96.216-.706.708zM.84 139.746c-2.318 41.828 13.37 82.816 43.003 112.425l.706-.708C15.12 222.056-.464 181.345 1.84 139.801l-1-.055zM56.439 32.393C22.948 59.212 3.19 97.349.839 139.746l1 .055c2.335-42.11 21.953-79.984 55.225-106.628l-.625-.78zM148.19.533c-33.526 0-66.114 11.312-91.752 31.86l.625.78c25.457-20.402 57.824-31.64 91.127-31.64v-1zm0 212.448c-35.918 0-65.124-29.184-65.124-65.073h-1c0 36.442 29.654 66.073 66.124 66.073v-1zm65.125-65.072c.033 35.888-29.206 65.072-65.125 65.072v1c36.47 0 66.159-29.63 66.125-66.073l-1 .001zM148.19 82.835c35.919 0 65.125 29.184 65.125 65.073h1c0-36.442-29.654-66.073-66.125-66.073v1zm-65.124 65.073c0-35.89 29.207-65.073 65.124-65.073v-1c-36.469 0-66.124 29.63-66.124 66.073h1z"/><path d="M148.191 115.946c-17.645 0-31.975 14.32-31.975 31.951s14.33 31.951 31.975 31.951c17.646 0 31.976-14.32 31.976-31.951s-14.33-31.951-31.976-31.951z" stroke="#fff"/></g></svg>