<svg xmlns="http://www.w3.org/2000/svg" xmlns:xlink="http://www.w3.org/1999/xlink"><defs><style>.cls-1{stroke:#231f20;stroke-miterlimit:10;}</style></defs><symbol id="icon-editor-contrast" viewBox="8 8 32 32">
  <path d="M24,12c6.6,0,12,5.4,12,12s-5.4,12-12,12s-12-5.4-12-12S17.4,12,24,12M24,8C15.1,8,8,15.1,8,24c0,8.8,7.1,16,16,16s16-7.1,16-16C39.9,15.1,32.8,8,24,8L24,8z"/>
  <path d="M24,32.3c4.7,0,8.5-3.8,8.5-8.5s-3.8-8.5-8.5-8.5"/>
  <rect fill="none" width="48" height="48"/>
</symbol><symbol id="icon-editor-crop" viewBox="3 3 43 43">
  <path d="M34,30h4V14c0-2.21-1.79-4-4-4H18v4h16V30zM14,34V2h-4v8H2v4h8v20c0,2.21,1.79,4,4,4h20v8h4v-8h8v-4H14z"/>
  <rect fill="none" width="48" height="48"/>
</symbol><symbol id="icon-editor-fill" viewBox="0 0 48 48">
  <path d="M33.12,17.88L15.24,0l-2.83,2.83l4.76,4.76L6.88,17.88c-1.17,1.17-1.17,3.07,0,4.24l11,11C18.46,33.71,19.23,34,20,34 s1.54-0.29,2.12-0.88l11-11C34.29,20.95,34.29,19.05,33.12,17.88zM10.41,20L20,10.42L29.59,20H10.41zM38,23c0,0-4,4.33-4,7c0,2.21,1.79,4,4,4s4-1.79,4-4C42,27.33,38,23,38,23z"/>
  <rect y="40" width="48" height="3"/>
  <rect fill="none" width="48" height="48"/>
</symbol><symbol id="icon-facebook" viewBox="0 0 8.673 18.944">
  <path fill="#d22856" d="M6.275,3.357c0.799,0,1.599,0,2.398,0c0-1.119,0-2.238,0-3.357c-0.959,0-1.92,0-2.878,0C2.656,0.181,1.54,2.387,1.948,6.115 H0v3.517h1.958c0,3.104,0,6.208,0,9.312c1.279,0,2.558,0,3.837,0c0-3.104,0-6.208,0-9.312h2.857V6.115H5.786 C5.765,5.07,5.75,3.709,6.275,3.357z"/>
</symbol><symbol id="icon-heart" viewBox="521.939 473.064 12.545 11.99">
    <path fill="#d22856" d="M528.174,485.055c-0.212,0-0.412-0.091-0.552-0.249c-3.798-4.324-4.644-5.298-4.858-5.572l-0.004,0.0 c-0.529-0.675-0.821-1.518-0.821-2.373c0-2.095,1.704-3.799,3.799-3.799c0.934,0,1.804,0.32,2.484,0.898 c0.696-0.578,1.56-0.898,2.463-0.898c2.095,0,3.799,1.704,3.799,3.799c0,0.909-0.318,1.754-0.896,2.381l-4.86,5.561 C528.587,484.964,528.386,485.055,528.174,485.055L528.174,485.055z M523.929,478.349c0.208,0.255,2.471,2.839,4.243,4.858 l4.323-4.944c0.34-0.369,0.52-0.86,0.52-1.399c0-1.285-1.045-2.331-2.33-2.331c-0.729,0-1.421,0.344-1.9,0.943 c-0.142,0.178-0.353,0.267-0.585,0.275c-0.227-0.003-0.439-0.111-0.575-0.294c-0.441-0.587-1.129-0.925-1.887-0.925 c-1.285,0-2.33,1.046-2.33,2.331c0,0.678,0.275,1.171,0.507,1.467C523.919,478.336,523.925,478.342,523.929,478.349z"/>
</symbol><symbol id="icon-html-academy" viewBox="0 0 154.38 195.33"><title>icon_academy</title><g id="&#x421;&#x43B;&#x43E;&#x439;_2" data-name="&#x421;&#x43B;&#x43E;&#x439; 2"><g id="Layer_1" data-name="Layer 1"><path class="cls-1" d="M78,.59,77.19.5.5,8.54V149.11l76.69,45.63,76.69-45.63V8.54Zm65.86,142.82L77.19,183.07,10.53,143.41V85.79L76.91,125.3l.11,7.16-45.53-27.1-.07,7,45.71,27.47.11,7.35-45.7-27.19-.07,7,45.71,27.47,46.15-27.62v-7l-.06,0V97.1l20.57-12.28Zm-.05-66.06L125.56,88.09l-8.42,5L77,69.17l-.07,7,34.32,20.41-.3.18-.74.44L105.33,100,77,83.16l-.07,7,22.36,13.3L94,106.94l-.13.08L77,97.06l-.07,7L88,110.54l-11.29,6.78-66-39.26L76.82,38.31h0Zm.05-7-67-39.51h0L10.53,70.31V17.58l66.66-7,66.66,7Z"/></g></g></symbol><symbol id="icon-logo-android" viewBox="0 0 42.084 47.041">
  <path fill="#A4C639" d="M34.144,14.009H7.945c-0.009,0.11-0.018,0.22-0.018,0.333v18.755c0,1.926,1.457,3.49,3.316,3.627v7.43 c0,1.594,1.291,2.885,2.885,2.885c1.593,0,2.885-1.291,2.885-2.885v-7.42h8.058v7.42c0,1.594,1.291,2.885,2.885,2.885 c1.595,0,2.886-1.291,2.886-2.885v-7.434c1.858-0.137,3.315-1.701,3.315-3.627V14.342C34.157,14.229,34.153,14.119,34.144,14.009z"/>
  <path id="c-4-9-2-9-2-9" fill="#A4C639" d="M2.886,15.679L2.886,15.679c1.593,0,2.886,1.292,2.886,2.885v12.378 c0,1.595-1.292,2.886-2.886,2.886l0,0C1.292,33.828,0,32.537,0,30.942V18.564C0,16.97,1.292,15.679,2.886,15.679z"/>
  <path id="c-4-1-7-3-8-4" fill="#A4C639" d="M39.198,15.679L39.198,15.679c1.595,0,2.886,1.292,2.886,2.885v12.378 c0,1.595-1.291,2.886-2.886,2.886l0,0c-1.594,0-2.885-1.291-2.885-2.886V18.564C36.313,16.97,37.604,15.679,39.198,15.679z"/>
  <path fill="#A4C639" d="M8.03,11.967h26.026c-0.039-2.783-1.234-5.322-3.187-7.275l2.446-4.235c0.082-0.146,0.031-0.331-0.112-0.415 c-0.146-0.084-0.331-0.034-0.415,0.111L30.416,4.26c-2.052-1.853-6.249-3.4-9.374-3.4l0,0c-3.016,0-7.322,1.547-9.374,3.4 L9.296,0.152C9.213,0.007,9.027-0.042,8.881,0.041C8.736,0.125,8.686,0.311,8.77,0.456l2.445,4.235 C9.265,6.645,8.068,9.184,8.03,11.967z M25.323,6.804c-0.002-0.805,0.664-1.46,1.488-1.462c0.826-0.002,1.494,0.648,1.498,1.454 c0,0.002,0,0.005,0,0.008c0.002,0.805-0.664,1.46-1.49,1.462c-0.823,0.002-1.493-0.649-1.496-1.454 C25.323,6.81,25.323,6.807,25.323,6.804z M14.18,6.804c-0.001-0.805,0.665-1.46,1.489-1.462c0.824-0.002,1.494,0.648,1.497,1.454 c0,0.002,0,0.005,0,0.008c0.002,0.805-0.664,1.46-1.488,1.462c-0.825,0.002-1.495-0.649-1.498-1.454 C14.18,6.81,14.18,6.807,14.18,6.804z"/>
</symbol><symbol id="icon-logo-apple" viewBox="0 0 46.21 56.753">
  <path fill="#FFFFFF" d="M38.593,30.15c0.081,8.59,7.535,11.447,7.617,11.483c-0.062,0.202-1.19,4.073-3.927,8.072 c-2.365,3.457-4.82,6.901-8.688,6.973c-3.799,0.07-5.021-2.253-9.365-2.253c-4.344,0-5.702,2.182-9.298,2.32 c-3.733,0.142-6.576-3.739-8.961-7.184c-4.875-7.046-8.598-19.91-3.597-28.593c2.484-4.313,6.925-7.043,11.743-7.114 c3.666-0.069,7.126,2.466,9.366,2.466c2.241,0,6.444-3.049,10.865-2.601c1.85,0.077,7.044,0.747,10.38,5.629 C44.459,19.519,38.531,22.971,38.593,30.15 M31.453,9.062C33.435,6.662,34.769,3.323,34.405,0c-2.857,0.115-6.312,1.904-8.36,4.302 c-1.837,2.123-3.445,5.521-3.011,8.778C26.218,13.326,29.47,11.461,31.453,9.062"/>
</symbol><symbol id="icon-logo-footer-desktop" viewBox="0 0 146 40">
  <path d="M71.9,18.7c0-0.7,0.6-1.3,1.3-1.3h7.2c5.1,0,8.4,2.7,8.4,7.1v0.1c0,4.9-4.1,7.4-8.9,7.4h-5.5v6.8c0,0.7-0.6,1.3-1.3,1.3c-0.7,0-1.3-0.6-1.3-1.3L71.9,18.7L71.9,18.7z M80,29.6c3.7,0,6.2-2,6.2-5v-0.1c0-3.2-2.4-4.9-6.1-4.9h-5.7v9.9L80,29.6L80,29.6z"/>
  <path d="M93.6,18.5c0-0.7,0.6-1.3,1.3-1.3c0.7,0,1.3,0.6,1.3,1.3v20.3c0,0.7-0.6,1.3-1.3,1.3c-0.7,0-1.3-0.6-1.3-1.3V18.5z"/>
  <path d="M102.7,18.5c0-0.7,0.6-1.3,1.3-1.3h0.4c0.6,0,0.9,0.3,1.3,0.7l13.7,17.5v-17c0-0.7,0.5-1.3,1.3-1.3c0.7,0,1.2,0.6,1.2,1.3v20.3c0,0.7-0.5,1.2-1.2,1.2h-0.1c-0.5,0-0.9-0.3-1.3-0.8l-14-17.9v17.4c0,0.7-0.5,1.3-1.3,1.3c-0.7,0-1.2-0.6-1.2-1.3L102.7,18.5L102.7,18.5z"/>
  <path d="M128.2,18.5c0-0.7,0.6-1.3,1.3-1.3c0.7,0,1.3,0.6,1.3,1.3v12.3l12.8-13.2c0.3-0.3,0.6-0.5,1-0.5c0.7,0,1.2,0.6,1.2,1.3c0,0.4-0.2,0.6-0.4,0.9l-8,7.9l8.6,10.6c0.2,0.3,0.4,0.5,0.4,0.9c0,0.7-0.6,1.3-1.3,1.3c-0.5,0-0.8-0.3-1-0.6L135.6,29l-4.9,4.9v4.9c0,0.7-0.6,1.3-1.3,1.3c-0.7,0-1.3-0.6-1.3-1.3L128.2,18.5L128.2,18.5z"/>
  <path fill="#d22856" d="M60.5,28c0,0-5.2-21.4-5.2-21.4C54.9,4.3,52.7,0,46.7,0c-0.8,0-1.5,0.7-1.5,1.5S45.9,3,46.7,3c4.9,0,5.6,3.7,5.6,4.1l4.8,19.7H55c-0.4-3.6-2.5-6.6-5.3-8.5c-0.9,0.4-1.5,1.3-1.5,2.3c0,0.1,0,0.2,0,0.3c2,1.4,3.4,3.5,3.8,6c0.1,0.5,0.1,1,0.1,1.5c0,0.5-0.1,1-0.1,1.5c-0.7,4.3-4.4,7.5-8.9,7.5s-8.2-3.3-8.9-7.5c-0.1-0.5-0.1-1-0.1-1.5c0-0.5,0.1-1,0.1-1.5c0.1-0.9,0.4-1.7,0.8-2.5c-1-0.1-1.9-0.9-1.9-2c0-0.2-0.1-0.4-0.2-0.5c-0.9,1.5-1.6,3.1-1.8,5h-1.8c-0.7-5.9-5.8-10.5-11.9-10.5S6.2,20.9,5.5,26.8H3.4L8.2,7.1C8.3,6.7,9,3,13.8,3c0.8,0,1.5-0.7,1.5-1.5S14.7,0,13.8,0c-6,0-8.2,4.3-8.6,6.7c0,0-5.2,21.4-5.2,21.4c-0.3,1.1,0.5,1.8,1.4,1.8c0,0,0,0,0,0h4c0.1,0.6,0.2,1.2,0.4,1.8C5.9,31.6,6,31.5,6,31.3c0-1.1,0.9-2,2-2c0.2,0,0.3,0,0.5,0.1c0-0.3-0.1-0.7-0.1-1c0-0.5,0.1-1,0.1-1.5c0.7-4.3,4.4-7.5,8.9-7.5s8.2,3.3,8.9,7.5c0.1,0.5,0.1,1,0.1,1.5s-0.1,1-0.1,1.5c-0.7,4.3-4.4,7.5-8.9,7.5c-2,0-3.9-0.7-5.4-1.8c-0.4,0.3-0.8,0.5-1.3,0.5c-0.4,0-0.7,0.3-0.7,0.7c0,0.3-0.1,0.6-0.2,0.8c2.1,1.7,4.7,2.7,7.6,2.7c6.1,0,11.2-4.6,11.9-10.5h1.8c0.7,5.9,5.8,10.5,11.9,10.5S54.3,35.8,55,29.8h4c0,0,0,0,0,0C59.9,29.8,60.7,29.1,60.5,28z"/>
  <path fill="#d22856" d="M98.5,9.9c-2,0-3.6-1.6-3.6-3.6c0,2-1.6,3.6-3.6,3.6c2,0,3.6,1.6,3.6,3.6C94.9,11.5,96.5,9.9,98.5,9.9z"/>
  <path fill="#d22856" d="M43.1,19.3c0.2,0,0.5,0,0.7,0c-0.4-0.7-1.2-1.2-2.1-1.2c-0.9,0-1.6-0.6-1.9-1.4c-0.7,0.2-1.4,0.5-2.1,0.8c0.1,0,0.1,0,0.2,0c1.1,0,2,0.9,2,2c0,0.1,0,0.2,0,0.3C40.9,19.5,42,19.3,43.1,19.3z"/>
  <path d="M50.7,16.1c-2.5,0-4.5-2-4.5-4.5c0,2.5-2,4.5-4.5,4.5c2.5,0,4.5,2,4.5,4.5C46.2,18.1,48.2,16.1,50.7,16.1z"/>
  <path d="M37.9,19.6c-1.5,0-2.7-1.2-2.7-2.7c0,1.5-1.2,2.7-2.7,2.7c1.5,0,2.7,1.2,2.7,2.7C35.2,20.9,36.4,19.6,37.9,19.6z"/>
  <path d="M10.7,34.1c-1.5,0-2.7-1.2-2.7-2.8c0,1.5-1.2,2.8-2.7,2.8c1.5,0,2.7,1.2,2.7,2.7C8,35.3,9.2,34.1,10.7,34.1z"/>
</symbol><symbol id="icon-logo-footer-tablet" viewBox="0 0 146 40">
  <path d="M71.9,18.7c0-0.7,0.6-1.3,1.3-1.3h7.2c5.1,0,8.4,2.7,8.4,7.1v0.1c0,4.9-4.1,7.4-8.9,7.4h-5.5v6.8c0,0.7-0.6,1.3-1.3,1.3c-0.7,0-1.3-0.6-1.3-1.3L71.9,18.7L71.9,18.7z M80,29.6c3.7,0,6.2-2,6.2-5v-0.1c0-3.2-2.4-4.9-6.1-4.9h-5.7v9.9L80,29.6L80,29.6z"/>
  <path d="M93.6,18.5c0-0.7,0.6-1.3,1.3-1.3c0.7,0,1.3,0.6,1.3,1.3v20.3c0,0.7-0.6,1.3-1.3,1.3c-0.7,0-1.3-0.6-1.3-1.3V18.5z"/>
  <path d="M102.7,18.5c0-0.7,0.6-1.3,1.3-1.3h0.4c0.6,0,0.9,0.3,1.3,0.7l13.7,17.5v-17c0-0.7,0.5-1.3,1.3-1.3c0.7,0,1.2,0.6,1.2,1.3v20.3c0,0.7-0.5,1.2-1.2,1.2h-0.1c-0.5,0-0.9-0.3-1.3-0.8l-14-17.9v17.4c0,0.7-0.5,1.3-1.3,1.3c-0.7,0-1.2-0.6-1.2-1.3L102.7,18.5L102.7,18.5z"/>
  <path d="M128.2,18.5c0-0.7,0.6-1.3,1.3-1.3c0.7,0,1.3,0.6,1.3,1.3v12.3l12.8-13.2c0.3-0.3,0.6-0.5,1-0.5c0.7,0,1.2,0.6,1.2,1.3c0,0.4-0.2,0.6-0.4,0.9l-8,7.9l8.6,10.6c0.2,0.3,0.4,0.5,0.4,0.9c0,0.7-0.6,1.3-1.3,1.3c-0.5,0-0.8-0.3-1-0.6L135.6,29l-4.9,4.9v4.9c0,0.7-0.6,1.3-1.3,1.3c-0.7,0-1.3-0.6-1.3-1.3L128.2,18.5L128.2,18.5z"/>
  <path fill="#d22856" d="M60.5,28c0,0-5.2-21.4-5.2-21.4C54.9,4.3,52.7,0,46.7,0c-0.8,0-1.5,0.7-1.5,1.5S45.9,3,46.7,3c4.9,0,5.6,3.7,5.6,4.1l4.8,19.7H55c-0.4-3.6-2.5-6.6-5.3-8.5c-0.9,0.4-1.5,1.3-1.5,2.3c0,0.1,0,0.2,0,0.3c2,1.4,3.4,3.5,3.8,6c0.1,0.5,0.1,1,0.1,1.5c0,0.5-0.1,1-0.1,1.5c-0.7,4.3-4.4,7.5-8.9,7.5s-8.2-3.3-8.9-7.5c-0.1-0.5-0.1-1-0.1-1.5c0-0.5,0.1-1,0.1-1.5c0.1-0.9,0.4-1.7,0.8-2.5c-1-0.1-1.9-0.9-1.9-2c0-0.2-0.1-0.4-0.2-0.5c-0.9,1.5-1.6,3.1-1.8,5h-1.8c-0.7-5.9-5.8-10.5-11.9-10.5S6.2,20.9,5.5,26.8H3.4L8.2,7.1C8.3,6.7,9,3,13.8,3c0.8,0,1.5-0.7,1.5-1.5S14.7,0,13.8,0c-6,0-8.2,4.3-8.6,6.7c0,0-5.2,21.4-5.2,21.4c-0.3,1.1,0.5,1.8,1.4,1.8c0,0,0,0,0,0h4c0.1,0.6,0.2,1.2,0.4,1.8C5.9,31.6,6,31.5,6,31.3c0-1.1,0.9-2,2-2c0.2,0,0.3,0,0.5,0.1c0-0.3-0.1-0.7-0.1-1c0-0.5,0.1-1,0.1-1.5c0.7-4.3,4.4-7.5,8.9-7.5s8.2,3.3,8.9,7.5c0.1,0.5,0.1,1,0.1,1.5s-0.1,1-0.1,1.5c-0.7,4.3-4.4,7.5-8.9,7.5c-2,0-3.9-0.7-5.4-1.8c-0.4,0.3-0.8,0.5-1.3,0.5c-0.4,0-0.7,0.3-0.7,0.7c0,0.3-0.1,0.6-0.2,0.8c2.1,1.7,4.7,2.7,7.6,2.7c6.1,0,11.2-4.6,11.9-10.5h1.8c0.7,5.9,5.8,10.5,11.9,10.5S54.3,35.8,55,29.8h4c0,0,0,0,0,0C59.9,29.8,60.7,29.1,60.5,28z"/>
  <path fill="#d22856" d="M33,21.9c0.1,0.1,0.2,0.3,0.2,0.5c0,1.1,0.8,1.9,1.9,2c1.5-3,4.5-5,8.1-5c1.9,0,3.6,0.6,5.1,1.6c0-0.1,0-0.2,0-0.3c0-1,0.6-1.9,1.5-2.3c1.4,0.9,2.6,2.2,3.5,3.6c-2.1-3.4-5.9-5.6-10.2-5.6c-4.7,0-8.8,2.7-10.7,6.6C32.5,22.6,32.7,22.2,33,21.9z"/>
  <path fill="#d22856" d="M9.8,37.6c0.1-0.2,0.2-0.5,0.2-0.8c0-0.4,0.3-0.7,0.7-0.7c0.5,0,0.9-0.2,1.3-0.5c-1.8-1.4-3.1-3.4-3.5-5.7c0-0.2,0-0.3-0.1-0.5c-0.2,0-0.3-0.1-0.5-0.1c-1.1,0-2,0.9-2,2c0,0.1,0,0.2-0.1,0.4c1.1,3.7,3.8,6.6,7.4,8C12,39.2,10.8,38.5,9.8,37.6z"/>
</symbol><symbol id="icon-logo-header-desktop" viewBox="0 0 146 40">
  <path d="M71.9,18.7c0-0.7,0.6-1.3,1.3-1.3h7.2c5.1,0,8.4,2.7,8.4,7.1v0.1c0,4.9-4.1,7.4-8.9,7.4h-5.5v6.8c0,0.7-0.6,1.3-1.3,1.3c-0.7,0-1.3-0.6-1.3-1.3L71.9,18.7L71.9,18.7z M80,29.6c3.7,0,6.2-2,6.2-5v-0.1c0-3.2-2.4-4.9-6.1-4.9h-5.7v9.9L80,29.6L80,29.6z"/>
  <path d="M93.6,18.5c0-0.7,0.6-1.3,1.3-1.3c0.7,0,1.3,0.6,1.3,1.3v20.3c0,0.7-0.6,1.3-1.3,1.3c-0.7,0-1.3-0.6-1.3-1.3V18.5z"/>
  <path d="M102.7,18.5c0-0.7,0.6-1.3,1.3-1.3h0.4c0.6,0,0.9,0.3,1.3,0.7l13.7,17.5v-17c0-0.7,0.5-1.3,1.3-1.3c0.7,0,1.2,0.6,1.2,1.3v20.3c0,0.7-0.5,1.2-1.2,1.2h-0.1c-0.5,0-0.9-0.3-1.3-0.8l-14-17.9v17.4c0,0.7-0.5,1.3-1.3,1.3c-0.7,0-1.2-0.6-1.2-1.3L102.7,18.5L102.7,18.5z"/>
  <path d="M128.2,18.5c0-0.7,0.6-1.3,1.3-1.3c0.7,0,1.3,0.6,1.3,1.3v12.3l12.8-13.2c0.3-0.3,0.6-0.5,1-0.5c0.7,0,1.2,0.6,1.2,1.3c0,0.4-0.2,0.6-0.4,0.9l-8,7.9l8.6,10.6c0.2,0.3,0.4,0.5,0.4,0.9c0,0.7-0.6,1.3-1.3,1.3c-0.5,0-0.8-0.3-1-0.6L135.6,29l-4.9,4.9v4.9c0,0.7-0.6,1.3-1.3,1.3c-0.7,0-1.3-0.6-1.3-1.3L128.2,18.5L128.2,18.5z"/>
  <path d="M60.5,28c0,0-5.2-21.4-5.2-21.4C54.9,4.3,52.7,0,46.7,0c-0.8,0-1.5,0.7-1.5,1.5S45.9,3,46.7,3c4.9,0,5.6,3.7,5.6,4.1l4.8,19.7H55c-0.4-3.6-2.5-6.6-5.3-8.5c-0.9,0.4-1.5,1.3-1.5,2.3c0,0.1,0,0.2,0,0.3c2,1.4,3.4,3.5,3.8,6c0.1,0.5,0.1,1,0.1,1.5c0,0.5-0.1,1-0.1,1.5c-0.7,4.3-4.4,7.5-8.9,7.5s-8.2-3.3-8.9-7.5c-0.1-0.5-0.1-1-0.1-1.5c0-0.5,0.1-1,0.1-1.5c0.1-0.9,0.4-1.7,0.8-2.5c-1-0.1-1.9-0.9-1.9-2c0-0.2-0.1-0.4-0.2-0.5c-0.9,1.5-1.6,3.1-1.8,5h-1.8c-0.7-5.9-5.8-10.5-11.9-10.5S6.2,20.9,5.5,26.8H3.4L8.2,7.1C8.3,6.7,9,3,13.8,3c0.8,0,1.5-0.7,1.5-1.5S14.7,0,13.8,0c-6,0-8.2,4.3-8.6,6.7c0,0-5.2,21.4-5.2,21.4c-0.3,1.1,0.5,1.8,1.4,1.8c0,0,0,0,0,0h4c0.1,0.6,0.2,1.2,0.4,1.8C5.9,31.6,6,31.5,6,31.3c0-1.1,0.9-2,2-2c0.2,0,0.3,0,0.5,0.1c0-0.3-0.1-0.7-0.1-1c0-0.5,0.1-1,0.1-1.5c0.7-4.3,4.4-7.5,8.9-7.5s8.2,3.3,8.9,7.5c0.1,0.5,0.1,1,0.1,1.5s-0.1,1-0.1,1.5c-0.7,4.3-4.4,7.5-8.9,7.5c-2,0-3.9-0.7-5.4-1.8c-0.4,0.3-0.8,0.5-1.3,0.5c-0.4,0-0.7,0.3-0.7,0.7c0,0.3-0.1,0.6-0.2,0.8c2.1,1.7,4.7,2.7,7.6,2.7c6.1,0,11.2-4.6,11.9-10.5h1.8c0.7,5.9,5.8,10.5,11.9,10.5S54.3,35.8,55,29.8h4c0,0,0,0,0,0C59.9,29.8,60.7,29.1,60.5,28z"/>
  <path fill="#d22856" d="M98.5,9.9c-2,0-3.6-1.6-3.6-3.6c0,2-1.6,3.6-3.6,3.6c2,0,3.6,1.6,3.6,3.6C94.9,11.5,96.5,9.9,98.5,9.9z"/>
  <path d="M43.1,19.3c0.2,0,0.5,0,0.7,0c-0.4-0.7-1.2-1.2-2.1-1.2c-0.9,0-1.6-0.6-1.9-1.4c-0.7,0.2-1.4,0.5-2.1,0.8c0.1,0,0.1,0,0.2,0c1.1,0,2,0.9,2,2c0,0.1,0,0.2,0,0.3C40.9,19.5,42,19.3,43.1,19.3z"/>
  <path fill="#d22856" d="M50.7,16.1c-2.5,0-4.5-2-4.5-4.5c0,2.5-2,4.5-4.5,4.5c2.5,0,4.5,2,4.5,4.5C46.2,18.1,48.2,16.1,50.7,16.1z"/>
  <path fill="#d22856" d="M37.9,19.6c-1.5,0-2.7-1.2-2.7-2.7c0,1.5-1.2,2.7-2.7,2.7c1.5,0,2.7,1.2,2.7,2.7C35.2,20.9,36.4,19.6,37.9,19.6z"/>
  <path fill="#d22856" d="M10.7,34.1c-1.5,0-2.7-1.2-2.7-2.8c0,1.5-1.2,2.8-2.7,2.8c1.5,0,2.7,1.2,2.7,2.7C8,35.3,9.2,34.1,10.7,34.1z"/>
</symbol><symbol id="icon-logo-header-mobile" viewBox="0 0 74.426 22.859">
  <g>
    <path d="M0,1.449c0-0.708,0.58-1.288,1.256-1.288h7.18c5.087,0,8.436,2.704,8.436,7.147v0.064 c0,4.861-4.057,7.373-8.854,7.373H2.544v6.825c0,0.708-0.58,1.288-1.288,1.288C0.58,22.859,0,22.279,0,21.571V1.449z M8.114,12.428 c3.734,0,6.182-1.996,6.182-4.958V7.405c0-3.22-2.415-4.894-6.054-4.894H2.544v9.917H8.114z"/>
    <path d="M21.729,1.288C21.729,0.58,22.308,0,22.983,0c0.709,0,1.288,0.58,1.288,1.288v20.283 c0,0.708-0.579,1.288-1.288,1.288c-0.676,0-1.255-0.58-1.255-1.288V1.288z"/>
    <path d="M30.87,1.32c0-0.676,0.579-1.256,1.256-1.256h0.354c0.58,0,0.934,0.29,1.288,0.74l13.684,17.45V1.256 C47.451,0.58,47.998,0,48.707,0c0.676,0,1.223,0.58,1.223,1.256v20.348c0,0.676-0.482,1.191-1.158,1.191h-0.129 c-0.548,0-0.934-0.322-1.32-0.772L33.349,4.153v17.45c0,0.676-0.547,1.256-1.255,1.256c-0.677,0-1.224-0.58-1.224-1.256V1.32z"/>
    <path d="M56.3,1.288C56.3,0.58,56.879,0,57.556,0c0.708,0,1.287,0.58,1.287,1.288v12.331L71.689,0.451 C71.979,0.193,72.269,0,72.688,0c0.676,0,1.224,0.612,1.224,1.256c0,0.354-0.161,0.644-0.419,0.901l-7.984,7.92l8.564,10.561 c0.225,0.29,0.354,0.547,0.354,0.934c0,0.676-0.579,1.288-1.287,1.288c-0.483,0-0.806-0.258-1.03-0.58l-8.403-10.463l-4.862,4.861 v4.894c0,0.708-0.579,1.288-1.287,1.288c-0.677,0-1.256-0.58-1.256-1.288V1.288z"/>
  </g>
</symbol><symbol id="icon-logo-header-tablet" viewBox="0 0 146 40">
  <path d="M71.9,18.7c0-0.7,0.6-1.3,1.3-1.3h7.2c5.1,0,8.4,2.7,8.4,7.1v0.1c0,4.9-4.1,7.4-8.9,7.4h-5.5v6.8c0,0.7-0.6,1.3-1.3,1.3c-0.7,0-1.3-0.6-1.3-1.3L71.9,18.7L71.9,18.7z M80,29.6c3.7,0,6.2-2,6.2-5v-0.1c0-3.2-2.4-4.9-6.1-4.9h-5.7v9.9L80,29.6L80,29.6z"/>
  <path d="M93.6,18.5c0-0.7,0.6-1.3,1.3-1.3c0.7,0,1.3,0.6,1.3,1.3v20.3c0,0.7-0.6,1.3-1.3,1.3c-0.7,0-1.3-0.6-1.3-1.3V18.5z"/>
  <path d="M102.7,18.5c0-0.7,0.6-1.3,1.3-1.3h0.4c0.6,0,0.9,0.3,1.3,0.7l13.7,17.5v-17c0-0.7,0.5-1.3,1.3-1.3c0.7,0,1.2,0.6,1.2,1.3v20.3c0,0.7-0.5,1.2-1.2,1.2h-0.1c-0.5,0-0.9-0.3-1.3-0.8l-14-17.9v17.4c0,0.7-0.5,1.3-1.3,1.3c-0.7,0-1.2-0.6-1.2-1.3L102.7,18.5L102.7,18.5z"/>
  <path d="M128.2,18.5c0-0.7,0.6-1.3,1.3-1.3c0.7,0,1.3,0.6,1.3,1.3v12.3l12.8-13.2c0.3-0.3,0.6-0.5,1-0.5c0.7,0,1.2,0.6,1.2,1.3c0,0.4-0.2,0.6-0.4,0.9l-8,7.9l8.6,10.6c0.2,0.3,0.4,0.5,0.4,0.9c0,0.7-0.6,1.3-1.3,1.3c-0.5,0-0.8-0.3-1-0.6L135.6,29l-4.9,4.9v4.9c0,0.7-0.6,1.3-1.3,1.3c-0.7,0-1.3-0.6-1.3-1.3L128.2,18.5L128.2,18.5z"/>
  <path d="M60.5,28c0,0-5.2-21.4-5.2-21.4C54.9,4.3,52.7,0,46.7,0c-0.8,0-1.5,0.7-1.5,1.5S45.9,3,46.7,3c4.9,0,5.6,3.7,5.6,4.1l4.8,19.7H55c-0.4-3.6-2.5-6.6-5.3-8.5c-0.9,0.4-1.5,1.3-1.5,2.3c0,0.1,0,0.2,0,0.3c2,1.4,3.4,3.5,3.8,6c0.1,0.5,0.1,1,0.1,1.5c0,0.5-0.1,1-0.1,1.5c-0.7,4.3-4.4,7.5-8.9,7.5s-8.2-3.3-8.9-7.5c-0.1-0.5-0.1-1-0.1-1.5c0-0.5,0.1-1,0.1-1.5c0.1-0.9,0.4-1.7,0.8-2.5c-1-0.1-1.9-0.9-1.9-2c0-0.2-0.1-0.4-0.2-0.5c-0.9,1.5-1.6,3.1-1.8,5h-1.8c-0.7-5.9-5.8-10.5-11.9-10.5S6.2,20.9,5.5,26.8H3.4L8.2,7.1C8.3,6.7,9,3,13.8,3c0.8,0,1.5-0.7,1.5-1.5S14.7,0,13.8,0c-6,0-8.2,4.3-8.6,6.7c0,0-5.2,21.4-5.2,21.4c-0.3,1.1,0.5,1.8,1.4,1.8c0,0,0,0,0,0h4c0.1,0.6,0.2,1.2,0.4,1.8C5.9,31.6,6,31.5,6,31.3c0-1.1,0.9-2,2-2c0.2,0,0.3,0,0.5,0.1c0-0.3-0.1-0.7-0.1-1c0-0.5,0.1-1,0.1-1.5c0.7-4.3,4.4-7.5,8.9-7.5s8.2,3.3,8.9,7.5c0.1,0.5,0.1,1,0.1,1.5s-0.1,1-0.1,1.5c-0.7,4.3-4.4,7.5-8.9,7.5c-2,0-3.9-0.7-5.4-1.8c-0.4,0.3-0.8,0.5-1.3,0.5c-0.4,0-0.7,0.3-0.7,0.7c0,0.3-0.1,0.6-0.2,0.8c2.1,1.7,4.7,2.7,7.6,2.7c6.1,0,11.2-4.6,11.9-10.5h1.8c0.7,5.9,5.8,10.5,11.9,10.5S54.3,35.8,55,29.8h4c0,0,0,0,0,0C59.9,29.8,60.7,29.1,60.5,28z"/>
  <path d="M33,21.9c0.1,0.1,0.2,0.3,0.2,0.5c0,1.1,0.8,1.9,1.9,2c1.5-3,4.5-5,8.1-5c1.9,0,3.6,0.6,5.1,1.6c0-0.1,0-0.2,0-0.3c0-1,0.6-1.9,1.5-2.3c1.4,0.9,2.6,2.2,3.5,3.6c-2.1-3.4-5.9-5.6-10.2-5.6c-4.7,0-8.8,2.7-10.7,6.6C32.5,22.6,32.7,22.2,33,21.9z"/>
  <path d="M9.8,37.6c0.1-0.2,0.2-0.5,0.2-0.8c0-0.4,0.3-0.7,0.7-0.7c0.5,0,0.9-0.2,1.3-0.5c-1.8-1.4-3.1-3.4-3.5-5.7c0-0.2,0-0.3-0.1-0.5c-0.2,0-0.3-0.1-0.5-0.1c-1.1,0-2,0.9-2,2c0,0.1,0,0.2-0.1,0.4c1.1,3.7,3.8,6.6,7.4,8C12,39.2,10.8,38.5,9.8,37.6z"/>
</symbol><symbol id="icon-logo-microsoft" viewBox="0 0 43.922 41.992">
  <g>
    <path id="path5058" fill="#F05423" d="M20.874,19.953H0V0h20.874V19.953z"/>
    <path id="path5060" fill="#84C441" d="M43.922,19.953H23.049V0h20.873V19.953z"/>
    <path id="path5062" fill="#2DABE2" d="M20.873,41.992H0V22.04h20.873V41.992z"/>
    <path id="path5064" fill="#F9BC15" d="M43.922,41.992H23.049V22.04h20.873V41.992z"/>
  </g>
</symbol><symbol id="icon-mail" viewBox="0 0 17.988 13.966">
        <path fill="#d22856" d="M14.914,1.814C16.111,0.816,15.816,0,14.257,0H3.731c-1.56,0-1.854,0.816-0.657,1.814l3.742,3.118 c1.197,0.998,3.158,0.998,4.355,0L14.914,1.814z"/>
        <path fill="#d22856" d="M11.913,7.044C10.715,8.042,9.718,8.869,9.695,8.88c0,0,0,0-0.02,0.013 C9.601,8.949,9.523,8.995,9.44,9.029C9.407,9.044,9.374,9.063,9.34,9.077c-0.11,0.034-0.223,0.058-0.335,0.059 c-0.003,0-0.007,0.001-0.01,0.001c0,0,0,0-0.001,0s-0.001,0-0.001,0c-0.003,0-0.007-0.001-0.01-0.001 C8.87,9.134,8.759,9.111,8.648,9.077C8.614,9.063,8.58,9.044,8.548,9.029c-0.083-0.034-0.16-0.08-0.235-0.136C8.293,8.88,8.293,8.88,8.293,8.88c-0.022-0.012-1.02-0.838-2.218-1.836L2.178,3.796C0.979,2.798,0,3.257,0,4.816v6.315 c0,1.56,1.275,2.835,2.835,2.835h12.318c1.56,0,2.835-1.275,2.835-2.835V4.816c0-1.559-0.979-2.018-2.178-1.02L11.913,7.044z"/>
</symbol><symbol id="icon-no" viewBox="0 0 26.752 26.752">
  <path fill="#f25b26" d="M15.497,13.376L26.312,2.562c0.586-0.585,0.586-1.535,0-2.121s-1.535-0.586-2.121,0L13.376,11.255L2.562,0.439 c-0.586-0.586-1.535-0.586-2.121,0c-0.586,0.585-0.586,1.535,0,2.121l10.814,10.815L0.439,24.19c-0.586,0.586-0.586,1.535,0,2.121 c0.293,0.293,0.677,0.439,1.061,0.439s0.768-0.146,1.061-0.439l10.815-10.814L24.19,26.312c0.293,0.293,0.677,0.439,1.061,0.439 s0.768-0.146,1.061-0.439c0.586-0.586,0.586-1.535,0-2.121L15.497,13.376z"/>
</symbol><symbol id="icon-phone" viewBox="0 0 19.697 19.696">
  <path fill="#d22856" d="M9.848,0C6.34,0,2.823,0.628,1.546,1.878c-1.058,1.04-1.412,2.874-1.53,4.035c0,0-0.016,0.115-0.016,0.165 c0,0.454,0.369,0.82,0.819,0.82c0.054,0,2.028-0.161,3.218-0.259c0.029-0.004,0.058-0.008,0.086-0.017 C4.566,6.61,4.924,6.25,4.924,5.803l0.003-1.617c0-0.5,0.407-0.902,0.907-0.902h8.027c0.499,0,0.907,0.402,0.907,0.902l0.003,1.617 c0,0.447,0.356,0.808,0.802,0.82c0.027,0.009,0.056,0.013,0.085,0.017c1.19,0.098,3.164,0.259,3.217,0.259 c0.451,0,0.822-0.366,0.822-0.82c0-0.05-0.018-0.165-0.018-0.165c-0.118-1.161-0.472-2.995-1.53-4.035 C16.873,0.628,13.356,0,9.848,0z M9.848,10.67c-0.908,0-1.643,0.733-1.643,1.64c0,0.907,0.734,1.641,1.643,1.641 c0.906,0,1.641-0.733,1.641-1.641C11.488,11.404,10.754,10.67,9.848,10.67z M8.616,6.975V5.951c0-0.567-0.46-1.026-1.025-1.026 c-0.566,0-1.024,0.459-1.024,1.026v1.024l-5.537,5.913c-0.382,0.376-0.619,0.894-0.619,1.47v1.646c0,0.907,0.734,1.643,1.641,1.643 h0.411v1.023c0,0.568,0.46,1.026,1.026,1.026c0.565,0,1.024-0.458,1.024-1.026v-1.023h10.669v1.023c0,0.568,0.46,1.026,1.025,1.026 c0.567,0,1.026-0.458,1.026-1.026v-1.023h0.411c0.905,0,1.64-0.735,1.64-1.643v-1.646c0-0.576-0.236-1.094-0.618-1.47L13.13,6.975 V5.951c0-0.567-0.459-1.026-1.024-1.026c-0.567,0-1.027,0.459-1.027,1.026v1.024H8.616z M9.848,9.028 c1.814,0,3.282,1.468,3.282,3.282s-1.468,3.282-3.282,3.282c-1.813,0-3.281-1.468-3.281-3.282S8.034,9.028,9.848,9.028z"/>
</symbol><symbol id="icon-quotes" viewBox="0 0 78.672 63.789">
  <path d="M34.967,7.063L30.713,0C28.272,1.495,0,12.207,0,39.617c0,7.231,0.336,24.172,18.9,24.172c11.187,0,13.94-10.279,13.94-13.584c0-21.977-21.382-14.177-21.382-14.177C11.458,17.957,31.263,9.184,34.967,7.063z"/>
  <path d="M78.672,7.063L74.418,0c-2.44,1.495-30.713,12.207-30.713,39.617c0,7.231,0.337,24.172,18.9,24.172c11.187,0,13.939-10.279,13.939-13.584c0-21.977-21.381-14.177-21.381-14.177C55.165,17.957,74.969,9.184,78.672,7.063z"/>
</symbol><symbol id="icon-review-arrow-left" viewBox="0 0 21.706 41.719">
  <path d="M2.045,20.859L21.458,1.446c0.331-0.331,0.331-0.867,0-1.198c-0.33-0.331-0.867-0.331-1.197,0L0.248,20.261 c-0.331,0.33-0.331,0.867,0,1.197l20.013,20.013c0.164,0.165,0.382,0.248,0.599,0.248s0.434-0.083,0.599-0.248 c0.331-0.331,0.331-0.867,0-1.198L2.045,20.859z"/>
</symbol><symbol id="icon-review-arrow-right" viewBox="0 0 21.706 41.719">
  <path d="M19.661,20.859L0.248,1.446c-0.331-0.331-0.331-0.867,0-1.198c0.33-0.331,0.867-0.331,1.197,0l20.013,20.012 c0.33,0.33,0.33,0.867,0,1.197L1.445,41.471c-0.164,0.165-0.382,0.248-0.599,0.248s-0.434-0.083-0.599-0.248 c-0.331-0.331-0.331-0.867,0-1.198L19.661,20.859z"/>
</symbol><symbol id="icon-timer" viewBox="0 0 298 345.1">
  <path fill="#D22856" d="M149,70.2c-69.9,0-126.5,56.6-126.5,126.5S79.1,323.2,149,323.2s126.5-56.6,126.5-126.5S218.9,70.2,149,70.2z M149,307.4c-60.8,0-110.2-49.3-110.2-110.2C38.8,136.4,88.1,87,149,87c60.8,0,110.2,49.3,110.2,110.2S209.8,307.4,149,307.4z"/>
  <path fill="#DEDEDE" d="M264.6,102.1l5.4-5.4c7.7-7.7,9.1-18.9,3.1-24.9s-17.2-4.6-24.9,3.1l-5.4,5.4c-21-17-46.6-28.4-74.7-32v-9.6h7.7c10.9,0,19.8-8.7,19.8-19.4S186.6,0,175.7,0h-53.3c-10.9,0-19.8,8.7-19.8,19.4c0,10.7,8.9,19.4,19.8,19.4h7.7v9.6C56.7,57.6,0,120.2,0,196.1c0,82.3,66.7,149,149,149s149-66.7,149-149C298,160.4,285.5,127.7,264.6,102.1z M149,323.2c-69.9,0-126.5-56.6-126.5-126.5S79.1,70.2,149,70.2s126.5,56.6,126.5,126.5S218.9,323.2,149,323.2z"/>
  <path fill="#D22856" d="M143.8,236.1H84v-12.6l21.5-21.7c6.4-6.5,10.5-11,12.5-13.6c2-2.5,3.4-4.9,4.2-7c0.9-2.1,1.3-4.4,1.3-6.7c0-3.4-0.9-6-2.8-7.7s-4.4-2.5-7.6-2.5c-3.3,0-6.5,0.8-9.7,2.3c-3.1,1.5-6.4,3.7-9.8,6.5l-9.8-11.7c4.2-3.6,7.7-6.1,10.5-7.6s5.8-2.6,9.1-3.4c3.3-0.8,7-1.2,11-1.2c5.4,0,10.1,1,14.2,2.9c4.1,2,7.3,4.7,9.6,8.2s3.4,7.5,3.4,12.1c0,3.9-0.7,7.6-2.1,11.1c-1.4,3.5-3.5,7-6.4,10.6s-8,8.8-15.4,15.5l-11,10.4v0.8H144v15.3H143.8z"/>
  <path fill="#D22856" d="M214.3,218.4H204v17.8h-17.7v-17.8h-36.6v-12.6l37.6-55.3H204v53.8h10.3V218.4z M186.3,204.3v-14.5c0-2.4,0.1-5.9,0.3-10.5s0.4-7.3,0.5-8h-0.5c-1.4,3.2-3.2,6.3-5.2,9.4l-15.7,23.7L186.3,204.3L186.3,204.3z"/>
</symbol><symbol id="icon-twitter" viewBox="0 0 17.5 14.663">
  <g id="W6EeEF_1_">
    <g>
      <path fill="#d22856" fill-rule="evenodd" clip-rule="evenodd" d="M11.283,0.153c1.736-0.485,3.074,0.263,3.685,1.151 c0.694-0.226,1.372-0.47,2.072-0.691c-0.004,0.841-0.538,1.478-0.883,1.727C16.861,2.506,17.5,1.86,17.5,1.86 c-0.175,0.976-1.035,1.746-1.611,1.977C15.65,10.429,12.617,14.793,5.507,14.66c-0.538,0,0.077,0-0.46,0 c-0.422,0-4.29-0.45-5.047-1.843c2.341,0.192,4.011-0.412,4.835-1.15c-0.989-0.293-2.761-0.464-3.07-2.881 c0.362,0.105,0.583,0.223,1.228,0.117C1.757,8.067,0.385,7.366,0.461,5.218c0.294,0.32,1.1,0.523,1.381,0.461 c-0.725-0.235-2.03-3.281-0.921-4.836C2.794,2.654,4.769,4.364,8.29,4.528C8.506,2.288,9.461,0.787,11.283,0.153z"/>
    </g>
  </g>
</symbol><symbol id="icon-yes" viewBox="-82.357 4.875 21.698 16.09">
  <path fill="#3dc644" d="M-60.953,5.167c-0.391-0.391-1.023-0.391-1.414,0L-75.75,18.551l-4.9-4.9c-0.391-0.391-1.023-0.391-1.414,0 s-0.391,1.023,0,1.414l5.607,5.607c0.195,0.195,0.451,0.293,0.707,0.293s0.512-0.098,0.707-0.293l14.09-14.0 C-60.562,6.191-60.562,5.558-60.953,5.167z"/>
</symbol><symbol id="icon-youtube" viewBox="0 0 14.64 13.96">
  <path fill="#d22856" d="M1.775,13.78C0.799,14.257,0,13.758,0,12.671V1.29c0-1.088,0.799-1.585,1.775-1.109l12.133,5.932 c0.975,0.478,0.975,1.258,0,1.736L1.775,13.78z"/>
</symbol></svg>