<svg xmlns="http://www.w3.org/2000/svg" viewBox="0 0 22 20" >
<defs><style>.cls-1{fill:#fff;}</style></defs>
<title>foto_like</title>
<g fill="#b2b2b2" id="Слой_2" data-name="Слой 2"><g id="Layer_1" data-name="Layer 1"><g id="Page-1"><g id="Core"><g id="thumb-up"><g id="Shape"><path  class="cls-1" d="M8,19a1,1,0,0,1-1-1V8a.81.81,0,0,1,.2-.6l.06,0,6-6,.29.27a1,1,0,0,1,.17.45v.19L12.46,8H20a.93.93,0,0,1,.9,1v2a1.84,1.84,0,0,1,0,.3l-3,7.11A1,1,0,0,1,17,19ZM1,19V9H3V19Z"/><path d="M12.38,3.65l-.64,2.93L11.22,9H19.9v2.06L17,18H8V8H8l4.37-4.37M2,10v0M13.2,0,6.6,6.6A1.68,1.68,0,0,0,6,8V18a2,2,0,0,0,2,2h9a2,2,0,0,0,1.8-1.2l3-7.1a1.69,1.69,0,0,0,.1-.7V9A1.92,1.92,0,0,0,20,7H13.7l1-4.6V2.1A2.1,2.1,0,0,0,14.3,1L13.2,0ZM4,8H0V20H4V8ZM22,9V9Zm0,0h0Z"/></g></g></g></g></g></g>
</svg>