<svg xmlns="http://www.w3.org/2000/svg" xmlns:xlink="http://www.w3.org/1999/xlink"><defs><style>.cls-1{stroke:#231f20;stroke-miterlimit:10;}</style><style>.cls-1{fill:#010101;}</style><style>.cls-1{fill:#231f20;}</style><style>.cls-1{fill:#fff;}</style><style>.cls-1{fill:#fff;}</style><style>.cls-1{fill:#766458;}.cls-2{fill:#81b3d3;}.cls-3{fill:#fff;}</style><style>.cls-1{fill:#81b3d3;}.cls-2{fill:#23a9e1;}.cls-3{fill:#fff;}.cls-4{fill:#491213;}.cls-5{fill:#dc6243;}.cls-6{fill:#f49774;}.cls-7{fill:#f4b1a4;}</style><style>.cls-1{fill:#23a9e1;}.cls-2{fill:#fff;}.cls-3{fill:#491213;}.cls-4{fill:#dc6243;}.cls-5{fill:#f49774;}.cls-6{fill:#f4b1a4;}</style><style>.cls-1{fill:#23a9e1;}.cls-2{fill:#491213;}.cls-3{fill:#fff;}.cls-4{fill:#dc6243;}.cls-5{fill:#f49774;}.cls-6{fill:#f4b1a4;}</style><style>.cls-1{fill:#fff;}.cls-2{fill:#81b3d3;}</style><style>.cls-1{fill:#fff;}</style><style>.cls-1{fill:#231f20;}</style><style>.cls-1{fill:#444545;}</style><style>.cls-1{fill:#231f20;}</style><style>.cls-1{fill:#231f20;}</style><style>.cls-1{fill:#231f20;}</style><style>.cls-1{fill:#444545;}</style><style>.cls-1{fill:black;}</style></defs><symbol id="icon-corner-desktop" viewBox="0 0 1200 57">
  <g>
    <polygon fill="#FFFFFF" points="250.08,23.71 0,0 0,57 250.08,57 600.469,57 250.08,0"/>
    <polygon fill="#FFFFFF" points="950.859,23.71 950.859,0 600.469,57 950.859,57 1200,57 1200,0"/>
  </g>
</symbol><symbol id="icon-corner-mobile-blue" viewBox="440.469 30.889 320 26">
  <polygon fill="#81b3d2" points="760.469,57 760.469,30.889 599.955,57"/>
  <polygon fill="#81b3d2" points="440.469,57 599.955,57 440.469,31.056"/>
</symbol><symbol id="icon-corner-mobile" viewBox="440.469 30.889 320 26">
  <polygon fill="#FFFFFF" points="760.469,57 760.469,30.889 599.955,57"/>
  <polygon fill="#FFFFFF" points="440.469,57 599.955,57 440.469,31.056"/>
</symbol><symbol id="icon-corner-tablet" viewBox="216.469 0 768 57">
  <g>
    <polygon fill="#FFFFFF" points="249.566,23.71 216.469,20.565 216.469,57 599.955,57 249.566,0"/>
    <polygon fill="#FFFFFF" points="950.346,23.71 950.346,0 599.955,57 984.469,57 984.469,20.468"/>
  </g>
</symbol><symbol id="icon-feature-food" viewBox="0 0 76.17 68.96"><title>&#x420;&#x435;&#x441;&#x443;&#x440;&#x441; 3</title><g id="&#x421;&#x43B;&#x43E;&#x439;_2" data-name="&#x421;&#x43B;&#x43E;&#x439; 2"><g id="Layer_1" data-name="Layer 1" fill="#81b3d2"><path d="M71.91,46H4.25A4.26,4.26,0,0,0,0,50.29v3.45A4.27,4.27,0,0,0,4.25,58h1v1A10,10,0,0,0,15.13,69H61A10,10,0,0,0,71,59V58h1a4.26,4.26,0,0,0,4.25-4.25V50.29A4.26,4.26,0,0,0,71.91,46ZM68,59A6.93,6.93,0,0,1,61,66H15.13A6.93,6.93,0,0,1,8.21,59V58H68Zm5.21-5.29A1.27,1.27,0,0,1,71.91,55H4.25A1.27,1.27,0,0,1,3,53.75V50.29A1.27,1.27,0,0,1,4.25,49H71.91a1.27,1.27,0,0,1,1.25,1.25Z"/><polygon points="16.16 37.86 21.64 41.86 27.11 37.86 32.59 41.86 38.07 37.86 43.55 41.86 49.03 37.86 54.51 41.86 59.98 37.86 65.47 41.86 71.84 37.21 70.07 34.79 65.47 38.14 59.98 34.14 54.51 38.14 49.03 34.14 43.55 38.14 38.07 34.14 32.59 38.14 27.11 34.14 21.64 38.14 16.16 34.14 10.69 38.14 6.09 34.79 4.32 37.21 10.69 41.86 16.16 37.86"/><path d="M70.89,31.09c0-.61.05-2.62,0-3C70.24,12.48,55.8,0,38.08,0S5.92,12.48,5.24,28.09c0,.38,0,2.39,0,3ZM38.08,3c16,0,29.15,11.15,29.84,25.09H8.24C8.93,14.15,22.05,3,38.08,3Z"/><circle cx="38.08" cy="15.04" r="2"/><circle cx="30.08" cy="10.08" r="2"/><circle cx="46.08" cy="10.08" r="2"/></g></g></symbol><symbol id="icon-feature-gift" viewBox="0 0 63 75.08"><title>&#x420;&#x435;&#x441;&#x443;&#x440;&#x441; 2</title><g id="&#x421;&#x43B;&#x43E;&#x439;_2" data-name="&#x421;&#x43B;&#x43E;&#x439; 2"><g id="Layer_1" data-name="Layer 1" fill="#81b3d2"><path d="M60.17,22.23H35.76c13.6-6.81,14.69-11.11,14.19-13.52-1.14-3.92-5.6-6.94-9.85-5.34-5.48,2.06-7,10.26-8.51,16.19-1.89-6-3.73-13.65-8-17.52A7.19,7.19,0,0,0,17.9,0c-4,.35-9.65,5.32-7.34,10.85,2.22,5.31,9.54,8.67,14.35,11.35H2.83A2.84,2.84,0,0,0,0,25.07V36.25a2.84,2.84,0,0,0,2.84,2.83h.27v36h57v-36h.1A2.84,2.84,0,0,0,63,36.25V25.07A2.85,2.85,0,0,0,60.17,22.23ZM41.77,5.87c2.07-.31,4.91,1.28,5.18,3.17.39,2.72-3.35,5.19-5,6.34-2.48,1.72-4.85,2.61-7.18,4C35.63,15.75,37.27,6.54,41.77,5.87ZM19.23,15.72C17,14.25,12.79,11.34,12.89,8,13,4.49,18.54,1.55,21.57,4.2c3.8,3.33,5.62,11,7,16.36A68.29,68.29,0,0,1,19.23,15.72Zm5.88,56.43H6V39.08H25.11Zm0-36.06H3V25.23H25.11Zm10,36.06H28.05V25.23h7.06Zm22,0H38.05V39.08H57.13ZM60,36.08H38.05V25.23H60Z"/></g></g></symbol><symbol id="icon-feature-hotel" viewBox="0 0 74.7 72.35"><title>&#x420;&#x435;&#x441;&#x443;&#x440;&#x441; 1</title><g id="&#x421;&#x43B;&#x43E;&#x439;_2" data-name="&#x421;&#x43B;&#x43E;&#x439; 2"><g id="Layer_1" data-name="Layer 1" fill="#81b3d2"><path d="M29.5,65.34h16V41.41h-16V65.34Zm13.06-2.94H32.44V44.34H42.57Z"/><path d="M72.62,39.44l2.08-2.08-9.91-9.91V.47H51V13.63L37.35,0,0,37.36l2.08,2.08,7.83-7.83v37.8H6v2.94H69.85V69.41H64.79V31.61Zm-18.71-36h7.94v21.1l-7.94-7.94Zm7.94,66h-49V28.67l24.5-24.5,24.5,24.5Z"/><path d="M29.75,27.21a7.75,7.75,0,1,0,7.75-7.75A7.75,7.75,0,0,0,29.75,27.21Zm7.75-5a5,5,0,1,1-5,5A5,5,0,0,1,37.5,22.24Z"/><rect x="16.91" y="41.41" width="3" height="3.94"/><rect x="22.85" y="41.41" width="3" height="3.94"/><rect x="16.91" y="47.41" width="3" height="3.94"/><rect x="22.85" y="47.41" width="3" height="3.94"/><rect x="48.85" y="41.41" width="3" height="3.94"/><rect x="54.78" y="41.41" width="3" height="3.94"/><rect x="48.85" y="47.41" width="3" height="3.94"/><rect x="54.78" y="47.41" width="3" height="3.94"/></g></g></symbol><symbol id="icon-footer-logo" viewBox="0 0 154.38 195.33"><title>icon_academy</title><g id="&#x421;&#x43B;&#x43E;&#x439;_2" data-name="&#x421;&#x43B;&#x43E;&#x439; 2"><g id="Layer_1" data-name="Layer 1"><path class="cls-1" d="M78,.59,77.19.5.5,8.54V149.11l76.69,45.63,76.69-45.63V8.54Zm65.86,142.82L77.19,183.07,10.53,143.41V85.79L76.91,125.3l.11,7.16-45.53-27.1-.07,7,45.71,27.47.11,7.35-45.7-27.19-.07,7,45.71,27.47,46.15-27.62v-7l-.06,0V97.1l20.57-12.28Zm-.05-66.06L125.56,88.09l-8.42,5L77,69.17l-.07,7,34.32,20.41-.3.18-.74.44L105.33,100,77,83.16l-.07,7,22.36,13.3L94,106.94l-.13.08L77,97.06l-.07,7L88,110.54l-11.29,6.78-66-39.26L76.82,38.31h0Zm.05-7-67-39.51h0L10.53,70.31V17.58l66.66-7,66.66,7Z"/></g></g></symbol><symbol id="icon-form-mail" viewBox="0 0 16 12"><title>form_mail</title><path d="M8,10a2.32,2.32,0,0,1-1-.34L0,6v7a1,1,0,0,0,1,1H15a1,1,0,0,0,1-1V6L9,9.66A2.32,2.32,0,0,1,8,10Zm7-8H1A1,1,0,0,0,0,3v.76L8,8l8-4.21V3A1,1,0,0,0,15,2Z" transform="translate(0 -2)"/></symbol><symbol id="icon-form-phone" viewBox="0 0 18 18"><title>form_phone</title><g id="Page-1"><g id="Icons-Communication"><g id="phone"><path id="Shape" class="cls-1" d="M3.6,7.8a15.57,15.57,0,0,0,6.6,6.6l2.2-2.2a.8.8,0,0,1,1-.2,10.45,10.45,0,0,0,3.6.6,1,1,0,0,1,1,1V17a1,1,0,0,1-1,1A17,17,0,0,1,0,1,.94.94,0,0,1,1,0H4.5a.94.94,0,0,1,1,1,11.33,11.33,0,0,0,.6,3.6,1.23,1.23,0,0,1-.2,1L3.6,7.8Z"/></g></g></g></symbol><symbol id="icon-form-tick" viewBox="0 0 23.05 16.25"><title>&#x420;&#x435;&#x441;&#x443;&#x440;&#x441; 1</title><g id="&#x421;&#x43B;&#x43E;&#x439;_2" data-name="&#x421;&#x43B;&#x43E;&#x439; 2"><g id="Layer_2" data-name="Layer 2"><path class="cls-1" d="M22.8,1.3,21.75.25a.85.85,0,0,0-1.2,0L8.69,12.1,2.5,5.91a.85.85,0,0,0-1.2,0L.25,7a.85.85,0,0,0,0,1.2L8.09,16A.87.87,0,0,0,9.3,16L22.8,2.5A.85.85,0,0,0,22.8,1.3Z"/></g></g></symbol><symbol id="icon-intro-bottom" viewBox="0 0 1199.91 57"><title>intro_bottom</title><g id="&#x421;&#x43B;&#x43E;&#x439;_2" data-name="&#x421;&#x43B;&#x43E;&#x439; 2"><g id="Layer_1" data-name="Layer 1"><polygon class="cls-1" points="249.57 23.71 0 0 0 57 249.57 57 599.96 57 249.57 0 249.57 23.71"/><polygon class="cls-1" points="950.35 23.71 950.35 0 599.96 57 950.35 57 1199.91 57 1199.91 0 950.35 23.71"/></g></g></symbol><symbol id="icon-intro-text" viewBox="0 0 459.75 79.8"><title>intro_text</title><g id="&#x421;&#x43B;&#x43E;&#x439;_2" data-name="&#x421;&#x43B;&#x43E;&#x439; 2"><g id="Layer_1" data-name="Layer 1"><path class="cls-1" d="M44.47,21.74a20.46,20.46,0,0,0-12.9-5c-3.57,0-8.34,2.08-8.34,6.25,0,4.37,5.26,6.06,8.64,7.15l5,1.49C47.25,34.74,55.29,40,55.29,52.11c0,7.45-1.79,15.09-7.74,20.15s-13.7,7-21.24,7A46.18,46.18,0,0,1,0,70.77L8.34,55.09C13.2,59.36,19,62.83,25.61,62.83c4.57,0,9.43-2.28,9.43-7.54,0-5.46-7.64-7.34-11.81-8.54C11,43.27,3,40.1,3,25.61,3,10.42,13.8.5,28.79.5A51.19,51.19,0,0,1,52.21,6.65Z"/><path class="cls-1" d="M91.83,19V31.46h21.94V47.94H91.83v12.9H115V77.32H72.38V2.48H115V19H91.83Z"/><path class="cls-1" d="M129.42,2.48H157c20.84,0,38,16.38,38,37.42s-17.27,37.42-38,37.42H129.42Zm19.46,58.36h4.37c11.61,0,21.54-6.35,21.54-20.94,0-13.4-8.83-20.94-21.34-20.94h-4.56Z"/><path class="cls-1" d="M286.87,38.51c0,24.22-17.37,41.29-41.39,41.29s-41.39-17.07-41.39-41.29C204.09,15.88,223.94,0,245.48,0S286.87,15.88,286.87,38.51Zm-62.53.1c0,12.9,9.53,22.33,21.14,22.33s21.14-9.43,21.14-22.33c0-10.32-9.53-19.75-21.14-19.75S224.34,28.29,224.34,38.61Z"/><path class="cls-1" d="M297.24,2.48h19.45l35.64,45.76h.2V2.48H372V77.32H352.52L316.89,31.46h-.2V77.32H297.24Z"/><path class="cls-1" d="M407.34,64.32l-5.16,13H381.54L410.32,2.48h21.24l28.19,74.84H439l-4.86-13Zm13.6-38.71h-.2l-8,23.82h16.18Z"/></g></g></symbol><symbol id="icon-intro" viewBox="0 0 459.75 350.08"><title>logo_mobile</title><g id="&#x421;&#x43B;&#x43E;&#x439;_2" data-name="&#x421;&#x43B;&#x43E;&#x439; 2"><g id="Layer_1" data-name="Layer 1"><path class="cls-1" d="M165.42,70l-.2.23a6.45,6.45,0,0,1-4.52,2.22l2.82-4.86c1.81-3.14.14-6.1-2.68-6.1-2.3,0-4.09.92-5.81,3.92L153.56,68l-1.23,2.1-.15.18c-2.16,2.51-4.26,4.49-5.59,4.49-.66,0-1-.46-.35-1.64l6.42-11.2h2.45l.86-1.44H153.5l2.82-4.89h-3l-2.82,4.89H147.8l-.86,1.44h2.73l-6,10.42c-1.27,2.22-.37,4.26,2,4.26,1.74,0,3.66-1.31,5.51-3.08,0,3.82,5.3,4.56,8.54.46h.66A9.08,9.08,0,0,0,166.54,71,2.57,2.57,0,0,0,165.42,70Zm-6.39.2h-.14A1.77,1.77,0,0,0,157.13,72a2,2,0,0,0,.29,1l0,.06c-1.41,2.42-4.84,2-3.05-1.15L156.61,68,158,65.51c2.1-3.57,5-2.16,3.17.95Z"/><path class="cls-1" d="M206.88,70l-.2.23c-2.16,2.51-4.92,4.49-7,4.49-1.84,0-2.94-1.15-1.55-3.57l.29-.52c1.93.81,5.56.43,7.8-3.46l.43-.75c1.61-2.76.06-4.84-2.39-4.84A6.33,6.33,0,0,0,198.61,65l-2.91,5-.17.2c-2.16,2.5-4.26,4.49-5.59,4.49-.66,0-1-.46-.35-1.64l4.32-7.57c1.29-2.27.06-3.92-1.61-3.92-1.3,0-2.68.72-4.18,2.27l4.78-8.32h-3L181.57,70l-.17.19c-2.16,2.51-4.26,4.49-5.59,4.49-.66,0-1-.46-.35-1.64l6.42-11.2h2.45l.86-1.44h-2.48l2.82-4.89h-3l-2.82,4.9H177l-.86,1.44h2.73l-6,10.42c-1.27,2.22-.37,4.26,2,4.26a6.7,6.7,0,0,0,3.82-1.63L178,76.27h3l4.55-7.92c4.61-5.79,6.65-5,5.35-2.82L187,72.3c-1.27,2.22-.37,4.26,2,4.26,1.78,0,3.76-1.37,5.65-3.22.14,1.86,1.65,3.22,4.05,3.22,3.4,0,6.77-2.65,9.24-5.53A2.55,2.55,0,0,0,206.88,70Zm-5.7-4.2c1.73-3,4.78-2.48,3,.63l-.43.75c-1.44,2.45-3.37,2.39-4.49,2Z"/><path class="cls-1" d="M316,70l-.2.23a18.8,18.8,0,0,1-3.6,3.25c1-2.85.75-7.23,2.59-11.06l-2.25-1.21c-1.24,1.7-3.94,5.62-6.65,8.78h0l-.2.23c-2.16,2.51-4.26,4.49-5.59,4.49-.66,0-1-.46-.34-1.64l6.39-11.2h-3l-5.33,9.3c-2.27,2.07-4,3.22-4.61,3-.75-.31,0-1.44.38-2.07l5.84-10.19h-3L291.8,70l-.2.23a6.45,6.45,0,0,1-4.52,2.22l2.82-4.87c1.81-3.14.15-6.1-2.68-6.1-2.3,0-4.09.92-5.82,3.92L279.94,68l-1.23,2.1-.15.18c-2.16,2.51-4.92,4.49-7,4.49-1.84,0-2.94-1.15-1.56-3.57l.29-.52c1.93.81,5.56.43,7.8-3.45l.43-.75c1.61-2.76.06-4.84-2.39-4.84A6.34,6.34,0,0,0,270.5,65l-2.9,5-.17.2c-2.48,2.85-4.61,4.69-7,5.7l6.71-11.46h-1.76a3.17,3.17,0,0,0-3.14-2.88A6.65,6.65,0,0,0,257.14,65l-2.87,5h0l-.2.23c-2.16,2.5-4.26,4.49-5.59,4.49-.66,0-1-.46-.35-1.64l3-5.24a3.06,3.06,0,0,0-.43-4.06l-1.67-2A1.17,1.17,0,0,1,249.2,60l-1.55-1.7c-1.7,1.52-1.84,3.23-.78,4.61l.26.35c-1.32,1.87-3.11,4.4-5.07,6.71h0l-.2.23a6.46,6.46,0,0,1-4.52,2.22l2.82-4.87c1.81-3.14.14-6.1-2.68-6.1-2.3,0-4.09.92-5.81,3.92L230.19,68,229,70.06l-.15.17c-2.48,2.85-4.61,4.69-7,5.7l6.71-11.46H226.8a3.17,3.17,0,0,0-3.14-2.88A6.65,6.65,0,0,0,218.54,65l-4.2,7.26c-1.27,2.22-.37,4.26,2,4.26a5.71,5.71,0,0,0,2.85-1L218.39,77c-4,1.24-6.56,2.88-6.56,5.12,0,2.88,4.4,3.48,6.56-.2l2.27-3.95a18.24,18.24,0,0,0,7.18-4.48c0,3.83,5.29,4.58,8.54.48H237A9.08,9.08,0,0,0,243.18,71h0c1.44-1.67,2.56-3.17,5-6.42l.4.49a1.47,1.47,0,0,1,.17,1.7l-3.17,5.5c-1.27,2.22-.37,4.26,2,4.26,1.52,0,3.18-1,4.8-2.43a2.31,2.31,0,0,0,2.6,2.43,5.71,5.71,0,0,0,2.85-1L257,77c-4,1.24-6.56,2.88-6.56,5.12,0,2.88,4.4,3.48,6.56-.2l2.27-3.94a18.44,18.44,0,0,0,7.32-4.62c.13,1.88,1.65,3.24,4.06,3.24s4.86-1.37,6.95-3.2c-.12,3.92,5.27,4.72,8.54.58h.66a8.39,8.39,0,0,0,3.33-.86c-.81,2.08-.06,3.48,1.65,3.48s3.48-1.5,4.92-2.88a2.34,2.34,0,0,0,2.56,2.88c2.48,0,5.33-2.65,7.8-5.53h0c1.7-2,3.2-4.06,4.26-5.47-1.18,3.11-.55,8.69-3.4,8.69a1.67,1.67,0,0,1-1.41-1.09l-1.87,1a3.27,3.27,0,0,0,3.28,2.42,7.46,7.46,0,0,0,.83-.06l.09,0c3.05-.4,6.07-2.82,8.32-5.44A1.89,1.89,0,0,0,316,70Zm-43-4.2c1.73-3,4.78-2.48,3,.63l-.43.75c-1.44,2.45-3.37,2.39-4.49,2ZM215.89,81.4c-.63,1.12-1.64,1-1.64.14s.72-1.67,3-2.56Zm1.38-6.68c-.66,0-1-.46-.35-1.64l4.18-7.29c1.61-2.79,4.81-2.07,3.34.63l-2.27,4C220.35,73.31,218.54,74.72,217.27,74.72Zm18.4-4.52h-.15A1.77,1.77,0,0,0,233.76,72a2,2,0,0,0,.29,1l0,.06c-1.41,2.42-4.84,2-3.05-1.15L233.25,68l1.44-2.45c2.1-3.57,5-2.16,3.17.95Zm18.83,11.2c-.63,1.12-1.64,1-1.64.14s.72-1.67,3-2.56Zm1.38-6.68c-.66,0-1-.46-.35-1.64l4.18-7.29c1.61-2.79,4.81-2.07,3.34.63l-2.27,4C259,73.31,257.14,74.72,255.87,74.72Zm29.54-4.52h-.15A1.77,1.77,0,0,0,283.51,72a2,2,0,0,0,.29,1l0,.06c-1.41,2.42-4.84,2-3.05-1.15L283,68l1.44-2.45c2.1-3.57,5-2.16,3.17.95Z"/><rect class="cls-1" x="101.42" y="66.82" width="28.92" height="1.96"/><rect class="cls-1" x="328.42" y="66.82" width="28.92" height="1.96"/><path class="cls-2" d="M163.18,0h7.71l-1.21,44.92H155.16l-2-18.54-2,18.54H136.62L135.47,0h7.65l.64,37.15h.83L149.36,0h7.58l4.91,37.15h.76Z"/><path class="cls-2" d="M195,37.15v7.77h-20.9V0H195V7.7H181.78V18.54h10.57v7.7H181.78V37.15Z"/><path class="cls-2" d="M216.37,37.15v7.77H198.09V0h7.65V37.15Z"/><path class="cls-2" d="M232.62,28.36l7.71-1.8v13.6a4.8,4.8,0,0,1-4.71,4.75H224.14a4.76,4.76,0,0,1-4.71-4.75V4.75A4.72,4.72,0,0,1,224.14,0h11.47a4.76,4.76,0,0,1,4.71,4.75v9.11l-7.71,1.8v-8h-5.54V37.15h5.54V28.36Z"/><path class="cls-2" d="M261.09,0a4.76,4.76,0,0,1,4.72,4.75V40.17a4.81,4.81,0,0,1-4.72,4.75H249.62a4.76,4.76,0,0,1-4.71-4.75V4.75A4.72,4.72,0,0,1,249.62,0Zm-3,7.7h-5.54V37.15h5.54Z"/><path class="cls-2" d="M290.84,0h7.58V44.92h-7.65V22.84l-3.06,11.42h-7.45l-3-11.42V44.92h-7.65V0h7.58L284,21.69Z"/><path class="cls-2" d="M323.13,37.15v7.77h-20.9V0h20.9V7.7H309.88V18.54h10.58v7.7H309.88V37.15Z"/><path class="cls-3" d="M44.47,157.61a20.46,20.46,0,0,0-12.9-5c-3.57,0-8.34,2.08-8.34,6.25,0,4.37,5.26,6.06,8.64,7.15l5,1.49c10.42,3.08,18.46,8.34,18.46,20.45,0,7.45-1.79,15.09-7.74,20.15s-13.7,7-21.24,7A46.18,46.18,0,0,1,0,206.64L8.34,191c4.87,4.27,10.62,7.74,17.27,7.74,4.57,0,9.43-2.28,9.43-7.54,0-5.46-7.64-7.34-11.81-8.54C11,179.15,3,176,3,161.48c0-15.19,10.82-25.11,25.81-25.11a51.19,51.19,0,0,1,23.43,6.15Z"/><path class="cls-3" d="M91.83,154.83v12.51h21.94v16.48H91.83v12.9H115V213.2H72.38V138.35H115v16.48H91.83Z"/><path class="cls-3" d="M129.42,138.35H157c20.84,0,38,16.38,38,37.42s-17.27,37.42-38,37.42H129.42Zm19.46,58.36h4.37c11.61,0,21.54-6.35,21.54-20.94,0-13.4-8.83-20.94-21.34-20.94h-4.56Z"/><path class="cls-3" d="M286.87,174.38c0,24.22-17.37,41.29-41.39,41.29s-41.39-17.07-41.39-41.29c0-22.63,19.85-38.51,41.39-38.51S286.87,151.75,286.87,174.38Zm-62.53.1c0,12.9,9.53,22.33,21.14,22.33s21.14-9.43,21.14-22.33c0-10.32-9.53-19.75-21.14-19.75S224.34,164.16,224.34,174.48Z"/><path class="cls-3" d="M297.24,138.35h19.45l35.64,45.76h.2V138.35H372v74.84H352.52l-35.63-45.86h-.2v45.86H297.24Z"/><path class="cls-3" d="M407.34,200.19l-5.16,13H381.54l28.79-74.84h21.24l28.19,74.84H439l-4.86-13Zm13.6-38.71h-.2l-8,23.82h16.18Z"/><path class="cls-3" d="M108.08,287.74c7.66-2.59,8.24-12.18.69-12.18-2.08,0-4.56,1.46-6.27,4.45L92.29,297.66a14.72,14.72,0,0,1-1.46,2.15c-2.63-3.61-1.86-9,1.82-11.38l-1.53-1.93c-8,5.07-5.62,19.69,7.66,19.69C110.12,306.19,115.37,292.59,108.08,287.74Zm-9.37,15.53A10.93,10.93,0,0,1,93.24,302a19.74,19.74,0,0,0,1.9-2.7l6.38-11.05,1,.11C111.44,290.19,107.9,303.28,98.71,303.28ZM102.79,286l3.06-5.25c2.77-4.78,6.31-2,4.41,1.6C108.81,285.08,106.66,285.92,102.79,286Z"/><path class="cls-3" d="M140.16,300c-.63,2.25.57,4.08,3.15,4.08,1.53,0,3.43-1,5.25-2.48.18,1.46,1.35,2.48,3.28,2.48s4.23-1.39,6.39-3.36c-.42,2,.54,3.36,2.41,3.36,2.08,0,4.41-1.9,6.24-3.65-.36,2,.84,3.65,3.25,3.65,3.14,0,6.75-3.35,9.88-7a1.56,1.56,0,0,0-.1-.15c2.1-2.44,3.95-5,5.27-6.78-1.5,3.94-.69,11-4.3,11a2.12,2.12,0,0,1-1.79-1.39L176.71,301a4.14,4.14,0,0,0,4.16,3.06c.36,0,.69,0,1.06-.07,0,0,.07,0,.11,0,2.79-.37,5.55-2.06,7.94-4.23.06,2.5,2,4.33,5.14,4.33,4.3,0,8.57-3.35,11.71-7a3.29,3.29,0,0,0-1.42-1.31l-.26.29c-2.73,3.17-6.24,5.69-8.9,5.69-2.33,0-3.72-1.46-2-4.52l.36-.66c2.44,1,7,.55,9.88-4.38l.55-.95c2-3.5.07-6.13-3-6.13a8,8,0,0,0-7.11,4.38l-3.68,6.32-.1,0-.26.29a23.7,23.7,0,0,1-4.56,4.12c1.2-3.61.95-9.15,3.28-14l-2.84-1.53c-1.57,2.15-5,7.11-8.42,11.12l.11.14-.14.15c-2.73,3.17-5.4,5.69-7.08,5.69-.84,0-1.31-.58-.44-2.08l8.1-14.19h-3.79l-6.75,11.78c-2.88,2.63-5.1,4.08-5.83,3.76-.95-.4,0-1.82.48-2.62l7.4-12.91h-3.79l-6,10.45a2.19,2.19,0,0,0-.29-.16l-.25.29c-2.73,3.17-5.4,5.69-7.08,5.69-.84,0-1.31-.58-.44-2.08l6.13-10.72h-2.15a3.94,3.94,0,0,0-4-3.83c-2,0-4.89,1.61-6.49,4.38l-3.85,6.64a2.85,2.85,0,0,0-.58-.36l-.26.29c-2.73,3.17-6.24,5.69-8.9,5.69-2.33,0-3.72-1.46-2-4.52l3.9-6.78c2.19-3.76,6.05-3.14,3.79.8l-.55.95h3.1l.55-.95c2-3.5.07-6.13-3-6.13a8,8,0,0,0-7.11,4.38L127.38,296a2.41,2.41,0,0,0-.35-.19l-.26.29c-2.73,3.17-6.24,5.69-8.9,5.69-2.33,0-3.72-1.46-2-4.52l.36-.66c2.44,1,7,.55,9.88-4.37l.55-.95c2-3.5.07-6.13-3-6.13a8,8,0,0,0-7.11,4.38l-4,6.82c-2.37,4-.33,7.77,4.16,7.77,3.34,0,6.66-2,9.44-4.63-.1,2.65,1.87,4.63,5.14,4.63C134.43,304.08,137.51,302.34,140.16,300Zm58-9.56c2.19-3.76,6.05-3.14,3.79.8l-.55.95c-1.82,3.1-4.27,3-5.69,2.52ZM144,299.67l5.29-9.23c2-3.54,6.09-2.63,4.23.8l-3,5.18c-2.3,3.61-4.56,5.32-6.13,5.32C143.6,301.74,143.12,301.16,144,299.67Zm-24.18-9.23c2.19-3.76,6.05-3.14,3.79.8l-.55.95c-1.82,3.1-4.27,3-5.69,2.52Z"/><path class="cls-3" d="M248.4,304.08c4.3,0,8.57-3.35,11.71-7a3.27,3.27,0,0,0-1.42-1.31l-.25.29c-2.74,3.17-6.24,5.69-8.9,5.69-2.33,0-3.72-1.46-2-4.52l.37-.66c2.44,1,7,.55,9.88-4.38l.55-.95c2-3.5.07-6.13-3-6.13a8,8,0,0,0-7.11,4.38l-3.69,6.34-.11-.06-.26.29c-2.73,3.17-5.4,5.69-7.07,5.69-.84,0-1.31-.58-.44-2.08l5.47-9.59c1.64-2.88.07-5-2-5-1.64,0-3.39.91-5.29,2.88l6.05-10.54H237L226.35,296a2.43,2.43,0,0,0-.43-.25l-.26.29c-2.74,3.17-5.4,5.69-7.08,5.69-.84,0-1.31-.58-.44-2.08l8.13-14.19h3.1l1.09-1.82h-3.14l3.57-6.2h-3.79l-3.57,6.2h-3.43L219,285.48h3.46l-7.62,13.2c-1.6,2.81-.47,5.4,2.59,5.4,1.88,0,3.94-1.22,6-3l-1.5,2.61h3.83l5.76-10c5.84-7.33,8.42-6.38,6.78-3.57l-4.92,8.57c-1.6,2.81-.47,5.4,2.59,5.4,2.3,0,4.86-1.81,7.3-4.22C243.36,302.3,245.29,304.08,248.4,304.08Zm3.06-13.64c2.19-3.76,6.06-3.14,3.79.8l-.55.95c-1.82,3.1-4.27,3-5.69,2.52Z"/><path class="cls-3" d="M363.42,295.77l-.26.29c-2.73,3.17-5.4,5.69-7.07,5.69-.84,0-1.31-.58-.44-2.08l12.84-22.21h-3.79l-5.58,9.63a4.11,4.11,0,0,0-3.47-2c-2,0-4.89,1.6-6.49,4.38l-3.71,6.41-.24-.13-.26.29c-2.73,3.17-5.4,5.69-7.07,5.69-.84,0-1.31-.58-.44-2.08l5.47-9.59c1.64-2.88.07-5-2-5-1.64,0-3.35.88-5.25,2.85l1.42-2.48h-3.79L327.18,296a2.57,2.57,0,0,0-.36-.2l-.26.29c-2.73,3.17-5.4,5.69-7.07,5.69-.84,0-1.31-.58-.44-2.08l6.13-10.72H323a3.94,3.94,0,0,0-4-3.83c-2,0-4.89,1.6-6.49,4.38l-3.67,6.33-.21.23c-2.73,3.17-5.4,5.69-7.07,5.69-.84,0-1.31-.58-.44-2.08L305,293c1.31-2.3.69-3.65-.55-5.14l-2.12-2.55a1.48,1.48,0,0,1,.22-2.19l-2-2.15c-2.15,1.93-2.33,4.08-1,5.83l.33.44c-1.68,2.37-3.94,5.58-6.42,8.5a3.42,3.42,0,0,0,.26.32c-3.12,3.59-5.78,5.92-8.76,7.19l4.81-8.24H286l-.4.66c-2,3.54-4.3,6.05-7.26,6.05-2.59,0-3.06-2.59-.8-6.46l1.06-1.86a13.62,13.62,0,0,0,2.15.18c13.49,0,20-18.05,8.13-18.05-2.08,0-4.56,1.46-6.27,4.45l-5.91,10.17a6.11,6.11,0,0,1-3.39-5.4,6,6,0,0,1,2.44-4.78l-1.24-2.23a8.36,8.36,0,0,0,.88,14.62l-1.13,2c-2.66,4.6-2.19,9.7,3.17,9.7a7.6,7.6,0,0,0,4.12-1.2l-1,1.71c-5.14,1.57-8.31,3.65-8.31,6.49,0,3.65,5.58,4.41,8.31-.25l2.92-5c3.94-1.24,7.81-3.94,12-8.75a2.3,2.3,0,0,0-.24-.36c1.68-2,3.11-3.89,6-7.78l.51.62a1.86,1.86,0,0,1,.22,2.15l-4,7c-1.61,2.81-.47,5.4,2.59,5.4,1.91,0,4-1.24,6-3,0,1.75,1.15,3,3.31,3,1.53,0,3.43-1,5.25-2.48.18,1.46,1.35,2.48,3.28,2.48s3.79-1.13,5.74-2.79l-1.4,2.42h3.83l5.8-10.1c5.8-7.26,8.39-6.31,6.75-3.5l-4.92,8.57c-1.6,2.81-.47,5.4,2.59,5.4,2,0,4.23-1.39,6.38-3.35-.2,1.9,1,3.35,3.29,3.35,1.53,0,3.43-1,5.25-2.48.18,1.46,1.35,2.48,3.28,2.48,3.14,0,6.75-3.35,9.88-7A3.3,3.3,0,0,0,363.42,295.77Zm-78-14.15c1.13-1.93,2.37-2.77,3.43-2.77,6,0,1.79,12.25-8.13,12.25H280Zm-8.06,28.59c-.8,1.42-2.08,1.2-2.08.18s.88-2.11,3.79-3.25Zm39.69-13.78c-2.3,3.61-4.56,5.32-6.13,5.32-.84,0-1.31-.58-.44-2.08l5.29-9.23c2-3.54,6.09-2.62,4.23.8Zm36.7-.22c-2.3,3.76-4.63,5.54-6.24,5.54-.84,0-1.31-.58-.44-2.08l5.29-9.23c2-3.54,6.09-2.62,4.23.8h0Z"/><path class="cls-3" d="M236.71,331.76l-.25.29c-2.73,3.17-5.4,5.69-7.07,5.69-.84,0-1.31-.58-.44-2.08l5.47-9.59c1.64-2.88.07-5-2-5-1.64,0-3.35.88-5.25,2.84l1.42-2.48h-3.79l-6.11,10.57a2.73,2.73,0,0,0-.48-.29l-.26.29a8.18,8.18,0,0,1-5.73,2.81l3.57-6.16c2.3-4,.18-7.73-3.39-7.73-2.92,0-5.18,1.17-7.37,5l-1.86,3.25L201.5,332a2.5,2.5,0,0,0-.34-.19l-.26.29c-3.14,3.61-5.8,5.94-8.79,7.22l10.39-17.8h-3.79L192,333.15c-2.92,2.7-5.18,4.19-5.91,3.86-.95-.4,0-1.82.47-2.62l7.4-12.91h-3.79L184.13,332a2.53,2.53,0,0,0-.33-.19l-.25.29c-2.73,3.17-5.4,5.69-7.07,5.69-.84,0-1.31-.58-.44-2.08l5.47-9.59c1.64-2.88.07-5-2-5-1.64,0-3.35.88-5.25,2.84l1.42-2.48h-3.79L165.78,332a2.62,2.62,0,0,0-.36-.2l-.25.29c-2.73,3.17-5.4,5.69-7.08,5.69-.84,0-1.31-.58-.44-2.08l6.13-10.72h-2.15a3.94,3.94,0,0,0-4-3.83c-2,0-4.89,1.6-6.49,4.38l-3.92,6.76a2.16,2.16,0,0,0-.83-.49l-.26.29c-2.73,3.17-6.09,5.69-9.85,5.69-2.59,0-4.16-2.59-1.9-6.45l1.06-1.86a13.64,13.64,0,0,0,2.15.18c4,0,8.64-2.08,11.63-7.29a10.51,10.51,0,0,0,1.53-5.1c0-3.43-2.23-5.65-5-5.65-2.08,0-4.56,1.46-6.27,4.45l-5.91,10.18a6.11,6.11,0,0,1-3.39-5.4,6,6,0,0,1,2.44-4.78l-1.24-2.23a8.36,8.36,0,0,0,.88,14.62l-1.13,2c-2.66,4.6-1.09,9.7,4.27,9.7,4.24,0,7.35-1.89,10-4.37-.83,2.38.37,4.37,3.06,4.37,1.53,0,3.43-1,5.25-2.48.18,1.46,1.35,2.48,3.28,2.48s3.79-1.13,5.74-2.78l-1.4,2.42h3.83l5.8-10.1c5.8-7.26,8.39-6.31,6.75-3.5l-4.92,8.57c-1.6,2.81-.47,5.4,2.59,5.4,2,0,4.28-1.42,6.47-3.42-.46,2.09.51,3.42,2.4,3.42s3.9-1.53,5.62-3.06l-2.08,3.57c-5.14,1.53-8.35,3.65-8.35,6.49,0,3.65,5.58,4.41,8.31-.25l2.92-5a23.92,23.92,0,0,0,9.56-6.2c-.52,5.3,6.53,6.5,10.79,1.13h.84a11.07,11.07,0,0,0,5-1.46l-2.55,4.41H218l5.8-10.1c5.8-7.26,8.39-6.31,6.75-3.5l-4.92,8.57c-1.6,2.81-.48,5.4,2.59,5.4s6.75-3.35,9.88-7A3.29,3.29,0,0,0,236.71,331.76Zm-94.39-14.15c1.13-1.93,2.37-2.77,3.43-2.77,1.42,0,2.08.95,2.08,2.33,0,3.54-4.3,9.92-10.21,9.92h-.77Zm13.36,14.81c-2.3,3.61-4.56,5.32-6.13,5.32-.84,0-1.31-.58-.44-2.08l5.29-9.23c2-3.54,6.09-2.62,4.23.8Zm28.85,13.78c-.8,1.42-2.08,1.2-2.08.18s.91-2.11,3.83-3.25ZM210.06,332h-.18a2.24,2.24,0,0,0-2.23,2.26,2.47,2.47,0,0,0,.37,1.27l0,.07c-1.79,3.06-6.13,2.48-3.87-1.46l2.88-5,1.82-3.1c2.66-4.52,6.31-2.73,4,1.2Z"/><path class="cls-3" d="M324.62,333.08a2.4,2.4,0,0,0-1.42-1.31l-.26.29a23.62,23.62,0,0,1-4.56,4.12c1.2-3.61.95-9.15,3.28-14l-2.85-1.53c-1.57,2.15-5,7.11-8.42,11.12l0,0,0,0-.25.29c-2.74,3.17-5.4,5.69-7.08,5.69-.84,0-1.64-.84-1.64-2.55v-1.57c2.66.33,5.47-1.42,7.26-4.52l1-1.75c3.54-6.05-2.23-8.06-6.09-4.52l5.4-9.37h-3.79l-10.82,18.77a3.06,3.06,0,0,0-.69-.46l-.26.29c-2.73,3.17-6.24,5.69-8.9,5.69-2.33,0-3.72-1.46-2-4.52l3.9-6.78c2.19-3.76,6.05-3.14,3.79.8l-.55.95h3.1l.55-.95c2-3.5.07-6.13-3-6.13a8,8,0,0,0-7.11,4.38l-3.73,6.4-.23-.13-.26.29c-2.73,3.17-5.4,5.69-7.07,5.69-.84,0-1.31-.58-.44-2.08l8.1-14.19h-3.79L269,333.26c-2.88,2.63-5.1,4.08-5.84,3.76-.95-.4,0-1.82.47-2.62l7.4-12.91h-3.79l-7.37,12.74a22.67,22.67,0,0,1-2.45,2c1.2-3.61.95-9.15,3.28-14l-2.84-1.53c-1.57,2.15-10.32,13.75-13.75,17.76a5.5,5.5,0,0,0,1.42,1.31c2.15-2.48,9.37-11.78,10.72-13.57-1.5,3.94-.69,11-4.3,11a2.12,2.12,0,0,1-1.79-1.39L247.84,337a4.13,4.13,0,0,0,4.16,3.06,10.43,10.43,0,0,0,1.06-.07s.07,0,.11,0a13.17,13.17,0,0,0,5.63-2.38,2.29,2.29,0,0,0,2.51,2.49c2.08,0,4.41-1.9,6.23-3.65-.36,2,.84,3.65,3.25,3.65s5-1.89,7.47-4.38c0,2.52,2,4.38,5.14,4.38s6.14-1.72,8.78-4l-2.11,3.67h3.83l4.34-7.55v3c0,3.24.62,4.89,3.68,4.89s6.75-3.35,9.88-7l0,0,0,0c2.15-2.48,4-5.14,5.4-6.93-1.49,3.94-.69,11-4.3,11a2.12,2.12,0,0,1-1.79-1.39L308.76,337a4.14,4.14,0,0,0,4.16,3.06A10.58,10.58,0,0,0,314,340s.07,0,.11,0C317.95,339.46,321.78,336.4,324.62,333.08Zm-25.19-3,1.09-1.9c4.38-6.09,7.37-4.41,6-2.12l-1.82,3.14C303.59,331.18,300.27,332.57,299.43,330.09Z"/><path class="cls-3" d="M324.47,335.66a2.18,2.18,0,0,0-2.19,2.23,2.15,2.15,0,0,0,2.19,2.19,2.18,2.18,0,0,0,2.22-2.19A2.21,2.21,0,0,0,324.47,335.66Z"/><polygon class="cls-3" points="324.65 334.17 328.49 334.17 340.37 313.46 336.58 313.46 324.65 334.17"/><path class="cls-3" d="M80.41,277.58a2.47,2.47,0,0,1-.17.88,2.4,2.4,0,0,1-.51.8,2.6,2.6,0,0,1-.83.57,2.65,2.65,0,0,1-1.1.22,3.44,3.44,0,0,1-1.3-.25,3,3,0,0,1-1.06-.73,3.1,3.1,0,0,1-.57-1,4,4,0,0,1-.2-1.29,5.92,5.92,0,0,1,1.76-4.3,5.77,5.77,0,0,1,.85-.69,9.14,9.14,0,0,1,.9-.54l.73-.35.37-.17,1.35,2c-.25.09-.52.21-.83.35a4.63,4.63,0,0,0-.86.54,3,3,0,0,0-.68.76,2.15,2.15,0,0,0-.3,1,2.74,2.74,0,0,1,1.73.58A2,2,0,0,1,80.41,277.58Zm7.87,0a2.42,2.42,0,0,1-.17.88,2.38,2.38,0,0,1-.51.8,2.58,2.58,0,0,1-.83.57,2.66,2.66,0,0,1-1.1.22,3.43,3.43,0,0,1-1.3-.25,2.94,2.94,0,0,1-1.07-.73,3.15,3.15,0,0,1-.57-1,4.05,4.05,0,0,1-.2-1.29,5.92,5.92,0,0,1,1.76-4.3,5.6,5.6,0,0,1,.85-.69,9,9,0,0,1,.9-.54l.73-.35.37-.17,1.35,2c-.25.09-.52.21-.83.35a4.57,4.57,0,0,0-.86.54,2.88,2.88,0,0,0-.68.76,2.13,2.13,0,0,0-.31,1,2.74,2.74,0,0,1,1.73.57A2,2,0,0,1,88.28,277.58Z"/><path class="cls-3" d="M353.44,336.52a2.46,2.46,0,0,1,.17-.88,2.4,2.4,0,0,1,.51-.8,2.58,2.58,0,0,1,.83-.57,2.66,2.66,0,0,1,1.1-.22,3.45,3.45,0,0,1,1.3.25,2.92,2.92,0,0,1,1.06.73,3.11,3.11,0,0,1,.58,1,4.06,4.06,0,0,1,.2,1.29,5.91,5.91,0,0,1-1.76,4.3,5.66,5.66,0,0,1-.85.69,8.11,8.11,0,0,1-.9.54c-.28.15-.52.27-.73.35l-.37.17-1.35-2c.25-.09.52-.21.83-.35a4.6,4.6,0,0,0,.86-.54,2.92,2.92,0,0,0,.68-.76,2.13,2.13,0,0,0,.3-1,2.73,2.73,0,0,1-1.72-.58A2,2,0,0,1,353.44,336.52Zm-7.87,0a2.42,2.42,0,0,1,.17-.88,2.39,2.39,0,0,1,.51-.8,2.59,2.59,0,0,1,.83-.57,2.66,2.66,0,0,1,1.1-.22,3.46,3.46,0,0,1,1.3.25,2.94,2.94,0,0,1,1.06.73,3.14,3.14,0,0,1,.57,1,4,4,0,0,1,.2,1.29,5.92,5.92,0,0,1-1.76,4.3,5.74,5.74,0,0,1-.85.69,9.34,9.34,0,0,1-.9.54c-.28.15-.52.27-.73.35l-.37.17-1.36-2c.25-.09.53-.21.83-.35a4.56,4.56,0,0,0,.86-.54,2.94,2.94,0,0,0,.68-.76,2.16,2.16,0,0,0,.3-1,2.75,2.75,0,0,1-1.73-.58A2,2,0,0,1,345.57,336.52Z"/></g></g></symbol><symbol id="icon-logo-desktop" viewBox="0 0 186.64 96.43"><title>main_logo_desktop</title><g id="&#x421;&#x43B;&#x43E;&#x439;_2" data-name="&#x421;&#x43B;&#x43E;&#x439; 2"><g id="Layer_1" data-name="Layer 1"><g id="Layer_2" data-name="Layer 2"><path class="cls-1" d="M186.64,0H0L80.49,90.47a16.82,16.82,0,0,0,25.67,0Z"/><polygon class="cls-2" points="43.24 0.72 92.77 59.07 142.09 1.07 43.24 0.72"/><path class="cls-3" d="M122,17.33l-15.19.08c6-6.93,8.7-6.19,15.19-.08Z"/><path class="cls-3" d="M80.85,22.69h26.68c-2-1.23-6.71-7.06-9.31-4.89-.21.18-7.5-8.85-12.3-4.5-4.18,3.8-6.12-.5-10.86,2.51-5.4,3.57,3.12,5.67,5.78,6.88Z"/><path class="cls-4" d="M93.1,0H42.18V22.48L92.76,84l.34-.42,50.75-60.39V0ZM54.9,1.79h5.46V19L54.9,12.5Zm-.78,9.77-5-5.9V1.79h5Zm19.3-2.71L67.68,1.79h5.74Zm-6.64,3.83L61.18,1.79h5.6ZM61.15,3.44l5.52,10.74A58.16,58.16,0,0,0,61.15,19Zm6.42-.55,5.61,6.9c-1.12.65-2.16,1.3-3.1,1.93s-1.72,1.2-2.51,1.78Zm6.64-.2L79,6.91A48.56,48.56,0,0,0,74.2,9.21Zm5.57,3.89L74.37,1.79h6V6.38ZM98.9,1.79h5l-5,2.44Zm-5.79,0h4.44L93.11,3.85Zm-.94,2-4.24-2h4.24Zm-5.49.53L81.58,1.79h5.09ZM81.11,2.44l4.72,2.31a38.68,38.68,0,0,0-4.72,1.35Zm6.35,0L90.92,4a32,32,0,0,0-3.46.39Zm10.42.06V4.44a33.15,33.15,0,0,0-3.36-.39Zm6.47-.06v3.7a40,40,0,0,0-4.78-1.37Zm.78-.64h5.94l-5.43,4.82-.51-.19V1.79Zm13.55,0h5.6l-5.6,10.88Zm-6.64,0h5.74l-5.74,7Zm-.78.89V9.21a50.83,50.83,0,0,0-4.81-2.27Zm6.64.2v10.5c-.71-.51-1.46-1-2.26-1.56-1-.68-2.16-1.37-3.38-2.06Zm6.42.55V18.68a63.2,63.2,0,0,0-5.48-4.6Zm.78,16V1.79h5.46V13.2l-5.39,6.31Zm6.25-17.65h5V6.46l-5,5.82Zm-83,0V4.73L45.89,1.79ZM61.25,20l.14.13a56.8,56.8,0,0,1,9.21-7.65C75.79,9,83.84,4.9,92.76,5s17.06,4.19,22.35,7.67a60.16,60.16,0,0,1,9.45,7.62l-3.87,4.54c-6.91.95-11.86,6.08-18.6,5-3.4-.56-3.5-2.51-4.47-4.46-.75-1.49-1.94-1.3-3.49-1.91S91.84,21.63,89,22.31c-2.53.59-2.81,4.52-6,4.29-1.69-.12-1.81-2.5-4.24-5.54-6.3-7.57-12.16-6.52-16.25.48L92.76,57.48ZM137.11,5.54V1.79h3.2Z"/><polygon class="cls-2" points="88.75 70.92 92.77 64.42 96.77 70.92 92.77 77.43 88.75 70.92"/><path class="cls-3" d="M65.46,32.27a2.81,2.81,0,0,1,.81,2.12c-.06.58-.94,1.55-.27,1.85l2.24-2.83c-.6-.15-5.37-5.85-5.44-6.47l-3.16,1.73c.16.66,1.29,0,1.85,0a2.92,2.92,0,0,1,2,1.15c-1.73,1.45-5.93,5-6.37,5.09-.23,0-1.09-.6-1.1-.06,0,.26.85,1,1,1.21l2.23,2.65c.62-.28-.11-.73.21-1.24s4.9-4.27,6-5.24Z"/><path class="cls-3" d="M60.19,25.29c.44-.1.62.43,1-.06L58.7,22.31c-.37-.44-.84-.92-.71,0,.09.63-6.11,5.66-6.49,5.82s-.76-.42-1.11.1l2.19,2.61c.25.29.48.61.75.88s.21-.67.22-.58c-.09-.51.53-.95.86-1.23A60.6,60.6,0,0,1,60.19,25.29Z"/><path class="cls-3" d="M51.42,24.37a3.22,3.22,0,0,1-4.21-2c-.54-1.83.61-3.76,2.07-4.8s3.59-1,4.37.84a3.61,3.61,0,0,1-.09,2.5c-.16.51-.6,1,.06,1.29l2.58-3.29c-1.05-.63-1.52-1.68-2.3-2.6A5.87,5.87,0,0,0,50.42,14c-2.87-.41-5.57,2.56-5.79,5.24a5.76,5.76,0,0,0,1.25,4c.75,1,1.87,1.62,2.43,2.75a22.52,22.52,0,0,0,3.29-1.26,1.55,1.55,0,0,0-.17-.37Z"/><path class="cls-3" d="M90.72,60.78c-1.15-.77-4-4.69-4.57-5.34L85.82,55a2.21,2.21,0,0,0-.25.19c-.17.14.13.57-.05.86-.79,1.24-5.76,5-6,5.16-.56.38-1.16-.16-1.49.32a45.43,45.43,0,0,0,3,3.58c.48.08.15-.82.21-1A31.55,31.55,0,0,1,84.79,61c.34-.28.69.43.89.72a1.76,1.76,0,0,1,.3,1.57c-.12.37-.72.92-.25,1.17l2.61-3c.25-.29-.57,0-.47-.09a.91.91,0,0,1-1.06,0c-.1-.07-1.09-1.08-1-1.17A4.61,4.61,0,0,1,87.34,59c.86-.21,1.58,1.52,1.71,2.13A3.45,3.45,0,0,1,89,62.86c-.12.39-.49.7,0,.93l2.13-2.92a.71.71,0,0,1-.4-.1C90.59,60.69,90.86,60.85,90.72,60.78Z"/><path class="cls-3" d="M80.5,56.65a5.48,5.48,0,1,0-7.79-1.07,5.42,5.42,0,0,0,7.79,1.07C81.65,55.67,80.4,56.72,80.5,56.65ZM80,51.89a7.45,7.45,0,0,1-3.73,3.67c-1.82.71-3.1-.83-2.36-2.55a7.45,7.45,0,0,1,3.74-3.67c1.85-.74,3.07.85,2.36,2.55C79.65,52.78,80.1,51.72,80,51.89Z"/><path class="cls-3" d="M74.05,42c.47.06.93.55,1.27,0l-2.23-2.64c-.59.27,0,.55-.19,1s-2.56.78-3.18.89a15.82,15.82,0,0,1,1.16-2.84c.54-.44.88.43,1.28-.14l-2.74-3.25c-.31-.37-.56-1-1-.68a8.41,8.41,0,0,1-.09,1.73c-.09.24-.94,3.64-1.93,4.47a21.51,21.51,0,0,1-2.7,2.1c-.54.19-.83-.6-1.22,0l2.49,3c.13.15.6.86.77.89.52.09.06-.89.11-1.09.15-.43,2.5-2.72,3.5-2.86A19.37,19.37,0,0,1,74.05,42Z"/><path class="cls-5" d="M67.79,22.87c-4-.17-2.35-4,.39-4.81s8.09,1.72,9.84,3.4c-2.78.85-6.39.73-9.45.87-.23-3.12-1-2-.79.54Z"/><path class="cls-5" d="M77.29,35.42c-8.62-.07-2.79-13.32.14-12.52,3.37,1.07,3,12.62-.14,12.52Z"/><path class="cls-5" d="M83.4,31.09c-.84,2.5-2.36,3-2.19-.07.19-3.5,2.48-2.66,4.93-4,2-1.12,3.14-5.21,6.64-2.77,1.56,1.09,3.35.18,3.85,1.83,0-.08-4.54,10.31-2,10.31-5,0-2.77-5.92-.87-9.9-1.85.88-4.84,6.69-2.38,7.64-1.28,1.69-5.19,3.94-7.23,2.3-1.55-1.25-.69-3.33-.71-5.34Z"/><path class="cls-5" d="M87.5,40.7c-3.49,1-8.12-1.21-2.51-2.34,3.48-.7,7.19.78,2.51,2.34Z"/><path class="cls-5" d="M91.87,40.56c-.74-1.66.56-3.64,2.68-2.2,1.85,1.25-.85,3.11-2.68,2.2Z"/><path class="cls-5" d="M88.93,45.22c-2.41-.75-10.54-.56-5.22-2.76,1.64-.68,10.15.1,5.22,2.76Z"/><path class="cls-5" d="M99.36,48.54c-1.44-1.23-2.89-1.29-4.23,0-1.79-3.29-8.32-2.19-11.37-2.65,1.64,4,14.87,4.78,15.6,2.65Z"/><path class="cls-5" d="M97.46,51c-3.15-.15-6.67-.56-9.65.08,1.86.47,6.4,1.79,2.17,2.92,1.51,2.17,4,2,5.58.13A15.33,15.33,0,0,1,94,53c1.67-.3,3.23-1.27,3.44-2.07Z"/><path class="cls-5" d="M101.06,47.08c-5.29-3.11-4-5.43.35-7.59,2.25-1.13,7.32-5.21,9.45-3.85l-9.8,11.44Z"/><path class="cls-6" d="M97.29,39.81c-4.48-4.6,6.69-4.18,8.49-5.8,1.31.44,10.77-8.28,13.07-7.74-1.66,1.94-5.22,8.14-7.78,8.14-2,0-4-.29-5.47,1.11-2.22,2-5.91,3.09-8.31,4.29Z"/><path class="cls-7" d="M98.76,34.18c-2.45,1.32-4.77-3.91-.54-3.4,2.81.34,5.66-.24,8.35.23a8.66,8.66,0,0,1-7.81,3.17Z"/><path class="cls-3" d="M111.39,52.47a5,5,0,0,1,.21,2c-.11.87-1,2.92-2.17,2.34a18.23,18.23,0,0,1-3.19-2.55c.8-.94,1.51-1.75,2.85-1.29.37.12.69,0,.3-.26s-3.11-2-3.26-1.8.53.87.22,1.47a7,7,0,0,1-.93,1.22c-.72-.61-1.92-1.25-1.06-2.26a3.69,3.69,0,0,1,2.1-1.34c.57-.11,1.84.39,2-.22l-3.26-1.56c.18.8-3.35,4.52-4.13,5.46-.11.14-.66.61-.66.8,0,.43.62.1.66.08.49-.18,6.82,5.11,7,5.47s-.22.57,0,.73c0,0,.23.22.25.18.39-.47,4.52-6,5.37-6.22-.79-1.21-1.59-2.43-2.37-3.65C110.69,51.33,111.26,52,111.39,52.47Z"/><path class="cls-3" d="M105.23,59.17c-2.08-1.34-5.6,1.28-6.12,1.53-1,.49-1.79-.54-1.25-1.5a2.77,2.77,0,0,1,2.31-1.29c.28,0,1.35.2,1.46,0s.23-.22,0-.34L99.1,55.86c-.18,1.05-1.38,1.73-2.08,2.44a4.7,4.7,0,0,0-1.52,3.16,3,3,0,0,0,1.68,2.66,3.31,3.31,0,0,0,3.32-.51,19.18,19.18,0,0,1,1.92-1.17c1-.47,2.3-.06,2,1.27A3.6,3.6,0,0,1,102,66,3.29,3.29,0,0,1,100.1,66c-.43-.14-1-.73-1.23-.11l3.48,2.54a2.33,2.33,0,0,1,1.09-1.56,11.68,11.68,0,0,0,2-2.13C106.59,63,107,60.62,105.23,59.17Z"/><path class="cls-3" d="M105.23,59.17c.92.6-.59-.49,0,0Z"/><path class="cls-3" d="M134.46,21.85Z"/><path class="cls-3" d="M141.92,19.64c-.73.73-8.42-2.34-9-2.76-.29-.12-.3-1.32-.71-.83L131,17.51,129.76,19c-.26.31-.54.46,0,.72.84-.42,5.42,7.35,5,8.46-.72.38-6.92-5.06-7.08-5.42-.05-.15.27-1-.21-.94-.23,0-.74.9-.89,1.07L125.66,24c.33.48.52,0,1,0a13.19,13.19,0,0,1,2.24,1.66c-.72,0-2.68.13-2.93.11-.9.11-.42-.66-1-.93l-2.28,2.76-1.33,1.61c-.05.07,0,0,0,.11.33.27.1.17.57,0s6.56,4.93,6.78,5.19c.38.45-.15,1,.41,1.22l1.8-2.18c.09-.11.14-.1,0-.2-.43-.35-.48.21-1,.15s-4.39-3.37-5.89-4.61l8.2-.3c.3,0,1.14.9,1.07,1.22s-.46.56.05.79c.48-.58,1-1.15,1.46-1.73h0l.23-.28a.74.74,0,0,0,.21-.26l.17-.21c.42-.48,1.8-2,1.63-2.15-.46-.4-.68.47-1.3-.05a12.9,12.9,0,0,1-1.44-2.16c-.26-.45.61-.9,1-1.12.78-.48,3.25-1.18,3.48.35,0,.26-.27.55-.08.7s.2.24.27.16l3.3-4A1.47,1.47,0,0,0,141.92,19.64Zm-7.37,2.16h0l-.08.05.08-.05a5.71,5.71,0,0,0-1,.76L132,19.87l3.52,1.48A3.73,3.73,0,0,0,134.55,21.8Z"/><path class="cls-3" d="M124.8,33a5.48,5.48,0,1,0,.59,7.6A5.38,5.38,0,0,0,124.8,33Zm-.28,6.61,0,0c-1.23,1.29-3.36.1-4.5-.73s-3.11-2.57-1.86-4.1c1.06-1.29,3.12-.23,4.19.48s3.41,2.6,2.28,4.22C124.67,39.43,124.73,39.37,124.52,39.63Z"/><path class="cls-3" d="M124.8,33c1.17,1-.25-.21,0,0Z"/><path class="cls-3" d="M124.49,39.65l0,0,.08-.11Z"/><path class="cls-3" d="M118.21,42.14c.11.09.27.22-.06-.06-2.83-2.13-6.19-1.5-8.4,1.16l-3,3.57c.35.51.76-.12,1.27.18s6.24,5.1,6.34,5.37c.16.46-.25.55.14.88A41.39,41.39,0,0,0,119.47,47,4.34,4.34,0,0,0,118.21,42.14Zm-1.32,6.75c-.24.3,0,.05-.66.65-.31.29-6.44-4.68-6.19-4.94a4.35,4.35,0,0,1,3.58-1.3C115.8,43.86,118.82,46.56,116.89,48.89Z"/></g></g></g></symbol><symbol id="icon-logo-tablet" viewBox="0 0 101.67 83.99"><title>logo_tablet</title><g id="&#x421;&#x43B;&#x43E;&#x439;_2" data-name="&#x421;&#x43B;&#x43E;&#x439; 2"><g id="Layer_1" data-name="Layer 1"><g id="Layer_2" data-name="Layer 2"><polygon class="cls-1" points="1.06 0.7 50.58 59.05 99.91 1.06 1.06 0.7"/><path class="cls-2" d="M79.84,17.32l-15.19.08c6-6.93,8.7-6.19,15.19-.08Z"/><path class="cls-2" d="M38.66,22.67H65.34c-2-1.23-6.71-7.06-9.31-4.89-.21.18-7.5-8.85-12.3-4.5-4.18,3.8-6.12-.5-10.86,2.51-5.4,3.57,3.12,5.67,5.78,6.88Z"/><path class="cls-3" d="M50.92,0H0V22.46L50.58,84l.34-.42,50.75-60.39V0Zm0,57.05-.34.41L3.71,1.78H98.13Z"/><path class="cls-3" d="M50.58,57.46l.34-.41L78.5,24.76c-6.91.95-11.86,6.08-18.6,5-3.4-.56-3.5-2.51-4.47-4.46-.75-1.49-1.94-1.3-3.49-1.91s-2.28-1.74-5.16-1.06c-2.53.59-2.81,4.52-6,4.29-1.69-.12-1.81-2.5-4.24-5.54-6.3-7.57-12.16-6.52-16.25.48Z"/><polygon class="cls-1" points="46.56 70.9 50.58 64.4 54.59 70.9 50.58 77.41 46.56 70.9"/><path class="cls-2" d="M23.28,32.25a2.81,2.81,0,0,1,.81,2.12c-.06.58-.94,1.55-.27,1.85l2.24-2.83c-.6-.15-5.37-5.85-5.44-6.47l-3.16,1.73c.16.66,1.29,0,1.85,0a2.92,2.92,0,0,1,2,1.15c-1.73,1.45-5.93,5-6.37,5.09-.23,0-1.09-.6-1.1-.06,0,.26.85,1,1,1.21L17,38.73c.62-.28-.11-.73.21-1.24s4.9-4.27,6-5.24Z"/><path class="cls-2" d="M18,25.27c.44-.1.62.43,1-.06L16.52,22.3c-.37-.44-.84-.92-.71,0,.09.63-6.11,5.66-6.49,5.82s-.76-.42-1.11.1l2.19,2.61c.25.29.48.61.75.88s.21-.67.22-.58c-.09-.51.53-.95.86-1.23A60.5,60.5,0,0,1,18,25.27Z"/><path class="cls-2" d="M9.24,24.35a3.22,3.22,0,0,1-4.21-2c-.54-1.83.61-3.76,2.07-4.8s3.59-1,4.37.84a3.61,3.61,0,0,1-.09,2.5c-.16.51-.6,1,.06,1.29L14,18.85c-1.06-.63-1.52-1.68-2.3-2.6A5.86,5.86,0,0,0,8.23,14c-2.87-.41-5.57,2.56-5.79,5.24a5.75,5.75,0,0,0,1.25,4c.75,1,1.87,1.62,2.43,2.75a22.52,22.52,0,0,0,3.29-1.26,1.55,1.55,0,0,0-.17-.37Z"/><path class="cls-2" d="M48.54,60.76c-1.15-.77-4-4.69-4.57-5.34L43.63,55a2.3,2.3,0,0,0-.25.19c-.17.15.13.57-.05.86-.79,1.24-5.76,5-6,5.16-.56.38-1.16-.16-1.49.32a45,45,0,0,0,3,3.58c.48.08.15-.81.21-1a31.55,31.55,0,0,1,3.55-3.21c.34-.28.69.43.89.72a1.76,1.76,0,0,1,.3,1.57c-.12.37-.72.92-.25,1.17l2.61-3c.25-.29-.57,0-.47-.09a.91.91,0,0,1-1.06,0c-.1-.07-1.09-1.08-1-1.17A4.63,4.63,0,0,1,45.15,59c.86-.21,1.58,1.52,1.71,2.13a3.45,3.45,0,0,1-.08,1.75c-.12.39-.49.7,0,.93l2.13-2.92a.7.7,0,0,1-.4-.1C48.41,60.68,48.67,60.83,48.54,60.76Z"/><path class="cls-2" d="M38.31,56.63a5.48,5.48,0,1,0-7.79-1.07,5.42,5.42,0,0,0,7.79,1.07C39.47,55.66,38.21,56.7,38.31,56.63Zm-.46-4.75a7.45,7.45,0,0,1-3.73,3.67c-1.82.71-3.1-.83-2.36-2.55a7.45,7.45,0,0,1,3.74-3.67c1.85-.74,3.07.85,2.36,2.55C37.47,52.77,37.92,51.71,37.85,51.88Z"/><path class="cls-2" d="M31.87,42c.47.06.93.55,1.27,0l-2.23-2.64c-.59.27,0,.55-.19,1s-2.56.78-3.18.89a15.9,15.9,0,0,1,1.16-2.84c.54-.44.88.43,1.28-.14l-2.74-3.25c-.31-.37-.56-1-1-.68a8.41,8.41,0,0,1-.09,1.73c-.09.24-.94,3.64-1.93,4.47a21.51,21.51,0,0,1-2.7,2.1c-.54.19-.83-.6-1.22,0l2.49,3c.13.15.6.86.77.89.52.09.06-.89.11-1.09.15-.43,2.5-2.72,3.5-2.86A19.37,19.37,0,0,1,31.87,42Z"/><path class="cls-4" d="M25.61,22.86c-4-.17-2.35-4,.39-4.81s8.09,1.72,9.84,3.4c-2.78.85-6.39.73-9.45.87-.23-3.12-1-2-.79.54Z"/><path class="cls-4" d="M26.62,27.71c-2-1.58-1.4-5.27,1.76-4.15,4,2.08-.86,3.24-1.76,4.15Z"/><path class="cls-4" d="M35.11,35.41c-8.62-.07-2.79-13.32.14-12.52,3.37,1.07,3,12.62-.14,12.52Z"/><path class="cls-4" d="M41.22,31.08c-.84,2.5-2.36,3-2.19-.07.19-3.5,2.48-2.66,4.93-4,2-1.12,3.14-5.21,6.64-2.77,1.56,1.09,3.35.18,3.85,1.83,0-.08-4.54,10.31-2,10.31-5,0-2.77-5.92-.87-9.9-1.85.88-4.84,6.69-2.38,7.64-1.28,1.69-5.19,3.94-7.23,2.3-1.55-1.25-.69-3.33-.71-5.34Z"/><path class="cls-4" d="M45.32,40.68c-3.49,1-8.12-1.21-2.51-2.34,3.48-.7,7.19.78,2.51,2.34Z"/><path class="cls-4" d="M49.69,40.54c-.74-1.66.56-3.64,2.68-2.2,1.85,1.25-.85,3.11-2.68,2.2Z"/><path class="cls-4" d="M46.75,45.21c-2.41-.75-10.54-.56-5.22-2.76,1.64-.68,10.15.1,5.22,2.76Z"/><path class="cls-4" d="M50,44.85c0-1-.51-2.68,1.35-1.95,2.23.88-1.35,2.65-1.35,1.95Z"/><path class="cls-4" d="M57.18,48.52c-1.44-1.23-2.89-1.29-4.23,0-1.79-3.29-8.32-2.19-11.37-2.65,1.64,4,14.86,4.78,15.59,2.65Z"/><path class="cls-4" d="M55.28,50.95c-3.15-.15-6.67-.56-9.65.08,1.86.47,6.4,1.79,2.17,2.92,1.52,2.17,4,2,5.58.13A15.44,15.44,0,0,1,51.83,53c1.67-.3,3.23-1.27,3.44-2.07Z"/><path class="cls-4" d="M58.87,47.07c-5.29-3.11-4-5.43.35-7.59,2.25-1.13,7.32-5.21,9.45-3.85l-9.8,11.44Z"/><path class="cls-5" d="M55.11,39.79c-4.48-4.6,6.69-4.18,8.49-5.8,1.31.44,10.77-8.28,13.07-7.74-1.66,1.94-5.22,8.14-7.77,8.14-2,0-4-.29-5.47,1.11-2.22,2-5.91,3.09-8.31,4.29Z"/><path class="cls-6" d="M56.57,34.17c-2.45,1.32-4.77-3.91-.54-3.4,2.81.34,5.66-.24,8.35.23a8.66,8.66,0,0,1-7.81,3.17Z"/><path class="cls-2" d="M69.21,52.45a5,5,0,0,1,.21,2c-.11.87-1,2.92-2.17,2.34a18.23,18.23,0,0,1-3.19-2.55c.8-.94,1.51-1.75,2.85-1.29.37.12.69,0,.3-.26s-3.11-2-3.26-1.8.53.87.22,1.47a7,7,0,0,1-.93,1.22c-.72-.61-1.92-1.25-1.06-2.26A3.69,3.69,0,0,1,64.28,50c.57-.11,1.84.39,2-.22L63,48.2c.18.8-3.35,4.52-4.13,5.46-.11.14-.66.61-.66.8,0,.43.62.1.66.08.49-.18,6.82,5.11,7,5.47s-.22.57,0,.73c0,0,.23.22.25.18.39-.47,4.52-6,5.37-6.22-.79-1.21-1.59-2.43-2.37-3.65C68.5,51.32,69.08,52,69.21,52.45Z"/><path class="cls-2" d="M63,59.15c-2.08-1.34-5.6,1.28-6.12,1.53-1,.49-1.79-.54-1.25-1.5A2.77,2.77,0,0,1,58,57.89c.28,0,1.35.2,1.46,0s.23-.22,0-.35l-2.57-1.73c-.18,1.06-1.38,1.73-2.08,2.44a4.7,4.7,0,0,0-1.52,3.16A3,3,0,0,0,55,64.1a3.31,3.31,0,0,0,3.32-.51,19.18,19.18,0,0,1,1.92-1.17c1-.47,2.3-.06,2,1.27A3.6,3.6,0,0,1,59.79,66a3.29,3.29,0,0,1-1.87-.09c-.43-.14-1-.73-1.23-.11l3.48,2.54a2.33,2.33,0,0,1,1.09-1.56,11.68,11.68,0,0,0,2-2.13C64.41,63,64.79,60.6,63,59.15Z"/><path class="cls-2" d="M63,59.15c.92.6-.59-.49,0,0Z"/><path class="cls-2" d="M92.28,21.84Z"/><path class="cls-2" d="M99.74,19.63c-.73.73-8.42-2.34-9-2.76-.29-.12-.3-1.32-.71-.83l-1.22,1.46L87.58,19c-.26.31-.54.46,0,.72.84-.42,5.42,7.35,5,8.46-.72.38-6.92-5.06-7.08-5.42-.05-.15.27-1-.21-.94-.23,0-.74.9-.89,1.07L83.48,24c.33.48.52,0,1,0a13.15,13.15,0,0,1,2.24,1.66c-.72,0-2.68.13-2.93.11-.9.11-.42-.66-1-.93l-2.28,2.76-1.33,1.61c-.05.07,0,0,0,.11.33.27.1.17.57,0s6.56,4.93,6.78,5.19c.38.45-.15,1,.41,1.22l1.8-2.18c.09-.11.14-.1,0-.2-.43-.35-.48.21-1,.15s-4.39-3.37-5.89-4.61l8.2-.3c.3,0,1.14.9,1.07,1.22s-.46.56.05.79c.48-.58,1-1.15,1.46-1.73h0l.23-.28a.74.74,0,0,0,.21-.26l.17-.21c.42-.48,1.8-2,1.63-2.15-.46-.4-.68.47-1.3-.05a12.9,12.9,0,0,1-1.44-2.16c-.26-.45.61-.9,1-1.12.78-.48,3.25-1.18,3.48.35,0,.26-.27.55-.08.7s.2.24.27.16l3.3-4A1.47,1.47,0,0,0,99.74,19.63Zm-7.37,2.16h0l-.08.05.08-.05a5.71,5.71,0,0,0-1,.76l-1.56-2.69,3.52,1.48A3.73,3.73,0,0,0,92.36,21.78Z"/><path class="cls-2" d="M82.62,33a5.48,5.48,0,1,0,.59,7.6A5.38,5.38,0,0,0,82.62,33Zm-.28,6.61,0,0c-1.23,1.29-3.36.1-4.51-.73s-3.11-2.57-1.86-4.1c1.06-1.29,3.12-.23,4.19.48s3.41,2.6,2.28,4.22C82.49,39.41,82.54,39.35,82.34,39.61Z"/><path class="cls-2" d="M82.62,33c1.17,1-.25-.21,0,0Z"/><path class="cls-2" d="M82.31,39.64l0,0,.08-.11Z"/><path class="cls-2" d="M76,42.12c.11.09.27.22-.06-.06-2.83-2.13-6.19-1.5-8.4,1.16l-3,3.57c.35.51.76-.12,1.27.18s6.24,5.1,6.34,5.37c.16.46-.25.55.14.88A41.39,41.39,0,0,0,77.29,47,4.34,4.34,0,0,0,76,42.12Zm-1.32,6.75c-.24.3,0,.05-.66.65-.31.29-6.44-4.68-6.19-4.94a4.35,4.35,0,0,1,3.58-1.3C73.62,43.84,76.64,46.54,74.71,48.87Z"/></g></g></g></symbol><symbol id="icon-logo" viewBox="0 0 101.67 83.98"><title>main_logo_mobile</title><g id="&#x421;&#x43B;&#x43E;&#x439;_2" data-name="&#x421;&#x43B;&#x43E;&#x439; 2"><g id="Layer_1" data-name="Layer 1"><g id="Layer_2" data-name="Layer 2"><g id="Layer_2-2" data-name="Layer 2"><polygon class="cls-1" points="0 0 50.58 59.05 101.67 0 0 0"/><path class="cls-2" d="M50.92,0H0V22.46L50.58,84l.34-.42,50.75-60.39V0Zm0,57.05-.34.41L3.71,1.78H98.13Z"/><path class="cls-2" d="M50.58,57.46l.34-.41L78.5,24.76c-6.91.95-11.86,6.08-18.6,5-3.4-.56-3.5-2.51-4.47-4.45-.75-1.49-1.94-1.3-3.49-1.91s-2.28-1.74-5.16-1.06c-2.53.59-2.81,4.52-6,4.29-1.69-.12-1.81-2.5-4.24-5.54-6.3-7.57-12.16-6.52-16.25.47Z"/><path class="cls-3" d="M23.28,32.25a2.81,2.81,0,0,1,.81,2.12c-.06.58-.94,1.55-.27,1.85l2.24-2.83c-.6-.15-5.37-5.85-5.44-6.47l-3.16,1.73c.16.66,1.3,0,1.85,0a2.92,2.92,0,0,1,2,1.15c-1.73,1.45-5.93,5-6.37,5.09-.23,0-1.09-.6-1.1-.05,0,.26.85,1,1,1.21L17,38.73c.62-.28-.11-.73.2-1.24s4.9-4.27,6-5.24Z"/><path class="cls-3" d="M18,25.27c.44-.09.62.43,1-.06l-2.45-2.92c-.37-.44-.84-.92-.71,0,.09.63-6.11,5.66-6.49,5.82s-.76-.42-1.11.1l2.19,2.61c.25.29.48.61.75.88s.21-.67.22-.59c-.09-.51.53-.95.85-1.23A60.44,60.44,0,0,1,18,25.27Z"/><path class="cls-3" d="M9.24,24.35a3.22,3.22,0,0,1-4.21-2c-.54-1.83.61-3.76,2.07-4.8s3.59-1,4.37.84a3.61,3.61,0,0,1-.09,2.5c-.16.51-.6,1,.06,1.29L14,18.85c-1.06-.63-1.52-1.68-2.3-2.6A5.87,5.87,0,0,0,8.23,14c-2.87-.41-5.57,2.56-5.79,5.24a5.76,5.76,0,0,0,1.25,4c.75,1,1.87,1.62,2.44,2.75a22.46,22.46,0,0,0,3.29-1.26,1.56,1.56,0,0,0-.17-.37Z"/><path class="cls-3" d="M48.54,60.76c-1.15-.77-4-4.69-4.57-5.34L43.63,55a2.22,2.22,0,0,0-.25.19c-.17.15.13.57-.05.87-.79,1.24-5.76,5-6,5.16-.55.38-1.16-.16-1.49.31a44.43,44.43,0,0,0,3,3.58c.48.08.15-.81.21-1a31.56,31.56,0,0,1,3.55-3.21c.34-.28.69.43.89.72a1.76,1.76,0,0,1,.3,1.57c-.12.37-.72.92-.25,1.17l2.61-3c.25-.29-.57,0-.47-.09a.92.92,0,0,1-1.06,0c-.1-.07-1.09-1.08-1-1.17A4.64,4.64,0,0,1,45.15,59c.86-.21,1.58,1.52,1.71,2.13a3.45,3.45,0,0,1-.08,1.75c-.12.39-.49.7,0,.93l2.13-2.92a.68.68,0,0,1-.4-.09C48.41,60.68,48.67,60.83,48.54,60.76Z"/><path class="cls-3" d="M38.31,56.63a5.48,5.48,0,1,0-7.79-1.07,5.42,5.42,0,0,0,7.79,1.07C39.47,55.65,38.21,56.7,38.31,56.63Zm-.46-4.75a7.44,7.44,0,0,1-3.73,3.67c-1.82.71-3.1-.83-2.36-2.55a7.46,7.46,0,0,1,3.74-3.67c1.85-.73,3.07.85,2.36,2.55C37.47,52.77,37.92,51.71,37.85,51.88Z"/><path class="cls-3" d="M31.87,42c.48.06.93.55,1.27,0l-2.23-2.64c-.6.27,0,.55-.19,1s-2.56.78-3.18.89a16,16,0,0,1,1.16-2.83c.54-.44.88.43,1.28-.14l-2.74-3.25c-.31-.37-.56-1-1-.68a8.39,8.39,0,0,1-.09,1.73c-.09.24-.94,3.64-1.93,4.47a21.44,21.44,0,0,1-2.7,2.1c-.54.19-.82-.6-1.22,0l2.49,3c.13.15.6.86.77.89.52.1.06-.89.11-1.09.15-.43,2.5-2.72,3.5-2.86A19.26,19.26,0,0,1,31.87,42Z"/><path class="cls-3" d="M69.21,52.45a5,5,0,0,1,.21,2c-.11.87-1,2.92-2.17,2.34a18.4,18.4,0,0,1-3.19-2.55c.8-.94,1.51-1.75,2.85-1.29.37.12.69,0,.3-.26s-3.11-2-3.26-1.8.53.87.22,1.47a7,7,0,0,1-.93,1.22c-.72-.61-1.92-1.25-1.06-2.26A3.68,3.68,0,0,1,64.28,50c.56-.11,1.84.39,2-.22L63,48.2c.18.8-3.35,4.52-4.13,5.46-.11.14-.66.61-.66.8,0,.43.62.1.66.08.49-.18,6.82,5.11,7,5.47s-.22.57,0,.73c0,0,.23.22.25.19.39-.47,4.52-6,5.37-6.22-.79-1.21-1.59-2.43-2.37-3.65C68.5,51.32,69.07,52,69.21,52.45Z"/><path class="cls-3" d="M63,59.15c-2.08-1.34-5.6,1.28-6.12,1.53-1,.49-1.79-.54-1.25-1.5A2.77,2.77,0,0,1,58,57.89c.28,0,1.35.2,1.46,0s.23-.22,0-.35l-2.57-1.73c-.18,1.06-1.39,1.73-2.08,2.44a4.71,4.71,0,0,0-1.52,3.16A3,3,0,0,0,55,64.09a3.31,3.31,0,0,0,3.32-.51,19,19,0,0,1,1.92-1.17c1-.47,2.31-.06,2,1.27A3.59,3.59,0,0,1,59.79,66a3.29,3.29,0,0,1-1.87-.09c-.43-.14-1-.73-1.23-.11l3.48,2.54a2.33,2.33,0,0,1,1.09-1.56,11.7,11.7,0,0,0,2-2.13C64.41,63,64.79,60.6,63,59.15Z"/><path class="cls-3" d="M63,59.15c.93.6-.59-.49,0,0Z"/><path class="cls-3" d="M92.28,21.84Z"/><path class="cls-3" d="M99.73,19.63c-.73.73-8.42-2.34-9-2.76-.29-.12-.3-1.32-.71-.83l-1.21,1.46L87.58,19c-.26.31-.54.46,0,.72.84-.42,5.42,7.35,5,8.46-.73.38-6.91-5.06-7.08-5.42-.05-.15.27-1-.21-.95-.23,0-.74.9-.89,1.07L83.48,24c.33.48.52,0,1,0a13.22,13.22,0,0,1,2.24,1.66c-.73,0-2.69.13-2.93.11-.9.11-.42-.66-1-.93l-2.28,2.76-1.33,1.61c-.05.07,0,0,.05.11.33.27.1.17.57,0s6.56,4.93,6.78,5.19c.38.45-.15,1,.41,1.22l1.8-2.18c.09-.11.14-.1,0-.2-.43-.35-.48.21-1,.15s-4.4-3.37-5.9-4.61l8.2-.3c.3,0,1.14.9,1.07,1.22s-.46.56.06.79c.48-.58,1-1.15,1.46-1.73h0l.23-.28a.74.74,0,0,0,.21-.26l.17-.21c.43-.49,1.8-2,1.63-2.15-.46-.4-.68.47-1.3-.05a12.84,12.84,0,0,1-1.44-2.16c-.26-.45.61-.9,1-1.12.78-.48,3.25-1.18,3.48.35,0,.26-.27.55-.08.7s.21.24.27.16l3.3-4A1.38,1.38,0,0,0,99.73,19.63Zm-7.37,2.16h0l-.08.05.08-.05a5.72,5.72,0,0,0-1,.76l-1.56-2.69,3.52,1.48A3.72,3.72,0,0,0,92.36,21.78Z"/><path class="cls-3" d="M82.62,33a5.48,5.48,0,1,0,.59,7.6A5.38,5.38,0,0,0,82.62,33Zm-.28,6.61,0,0c-1.23,1.29-3.36.1-4.51-.73s-3.11-2.57-1.86-4.1c1.06-1.29,3.12-.23,4.19.48s3.41,2.6,2.28,4.22C82.49,39.41,82.54,39.35,82.33,39.61Z"/><path class="cls-3" d="M82.62,33c1.17,1-.25-.21,0,0Z"/><path class="cls-3" d="M82.31,39.64l0,0,.08-.11Z"/><path class="cls-3" d="M76,42.12c.11.09.27.22-.06-.06-2.84-2.13-6.19-1.5-8.4,1.16l-3,3.57c.35.51.76-.12,1.27.18s6.24,5.1,6.34,5.36c.16.46-.25.55.14.88A41.37,41.37,0,0,0,77.29,47,4.34,4.34,0,0,0,76,42.12Zm-1.32,6.75c-.24.3,0,.05-.66.65-.31.29-6.44-4.68-6.19-4.94a4.35,4.35,0,0,1,3.58-1.3C73.62,43.84,76.64,46.54,74.71,48.87Z"/></g><path class="cls-2" d="M50.58,57.48l.34-.41L78.5,24.78c-6.91.95-11.86,6.08-18.6,5-3.4-.56-3.5-2.51-4.47-4.46-.75-1.49-1.94-1.3-3.49-1.91s-2.28-1.74-5.16-1.06c-2.53.59-2.81,4.52-6,4.29-1.69-.12-1.81-2.5-4.24-5.54-6.3-7.57-12.16-6.52-16.25.48Z"/><polygon class="cls-1" points="46.56 70.92 50.58 64.42 54.58 70.92 50.58 77.43 46.56 70.92"/><path class="cls-3" d="M23.28,32.27a2.81,2.81,0,0,1,.81,2.12c-.06.58-.94,1.55-.27,1.85l2.24-2.83c-.6-.15-5.37-5.85-5.44-6.47l-3.16,1.73c.16.66,1.29,0,1.85,0a2.92,2.92,0,0,1,2,1.15c-1.73,1.45-5.93,5-6.37,5.09-.23,0-1.09-.6-1.1-.06,0,.26.85,1,1,1.21L17,38.75c.62-.28-.11-.73.21-1.24s4.9-4.27,6-5.24Z"/><path class="cls-3" d="M18,25.29c.44-.1.62.43,1-.06l-2.45-2.92c-.37-.44-.84-.92-.71,0C15.9,23,9.7,28,9.32,28.15s-.76-.42-1.11.1l2.19,2.61c.25.29.48.61.75.88s.21-.67.22-.58c-.09-.51.53-.95.86-1.23A60.5,60.5,0,0,1,18,25.29Z"/><path class="cls-3" d="M9.24,24.37a3.22,3.22,0,0,1-4.21-2c-.54-1.83.61-3.76,2.07-4.8s3.59-1,4.37.84a3.61,3.61,0,0,1-.09,2.5c-.16.51-.6,1,.06,1.29L14,18.87c-1.06-.63-1.52-1.68-2.3-2.6A5.86,5.86,0,0,0,8.23,14c-2.87-.41-5.57,2.56-5.79,5.24a5.75,5.75,0,0,0,1.25,4c.75,1,1.87,1.62,2.43,2.75a22.52,22.52,0,0,0,3.29-1.26,1.55,1.55,0,0,0-.17-.37Z"/><path class="cls-3" d="M48.54,60.78c-1.15-.77-4-4.69-4.57-5.34L43.63,55a2.3,2.3,0,0,0-.25.19c-.17.15.13.57-.05.86-.79,1.24-5.76,5-6,5.16-.56.38-1.16-.16-1.49.32a45,45,0,0,0,3,3.58c.48.08.15-.81.21-1a31.55,31.55,0,0,1,3.55-3.21c.34-.28.69.43.89.72a1.76,1.76,0,0,1,.3,1.57c-.12.37-.72.92-.25,1.17l2.61-3c.25-.29-.57,0-.47-.09a.91.91,0,0,1-1.06,0c-.1-.07-1.09-1.08-1-1.17A4.63,4.63,0,0,1,45.15,59c.86-.21,1.58,1.52,1.71,2.13a3.45,3.45,0,0,1-.08,1.75c-.12.39-.49.7,0,.93l2.13-2.92a.7.7,0,0,1-.4-.1C48.41,60.69,48.67,60.85,48.54,60.78Z"/><path class="cls-3" d="M38.31,56.65a5.48,5.48,0,1,0-7.79-1.07,5.42,5.42,0,0,0,7.79,1.07C39.47,55.67,38.21,56.72,38.31,56.65Zm-.46-4.75a7.45,7.45,0,0,1-3.73,3.67c-1.82.71-3.1-.83-2.36-2.55a7.45,7.45,0,0,1,3.74-3.67c1.85-.74,3.07.85,2.36,2.55C37.46,52.78,37.92,51.72,37.85,51.89Z"/><path class="cls-3" d="M31.87,42c.47.06.93.55,1.27,0l-2.23-2.64c-.59.27,0,.55-.19,1s-2.56.78-3.18.89a15.9,15.9,0,0,1,1.16-2.84c.54-.44.88.43,1.28-.14l-2.74-3.25c-.31-.37-.56-1-1-.68a8.41,8.41,0,0,1-.09,1.73c-.09.24-.94,3.64-1.93,4.47a21.51,21.51,0,0,1-2.7,2.1c-.54.19-.83-.6-1.22,0l2.49,3c.13.15.6.86.77.89.52.09.06-.89.11-1.09.15-.43,2.5-2.72,3.5-2.86A19.37,19.37,0,0,1,31.87,42Z"/><path class="cls-4" d="M25.61,22.87c-4-.17-2.35-4,.39-4.81s8.09,1.72,9.84,3.4c-2.78.85-6.39.73-9.45.87-.23-3.12-1-2-.79.54Z"/><path class="cls-4" d="M26.62,27.72c-2-1.58-1.4-5.27,1.76-4.15,4,2.08-.86,3.24-1.76,4.15Z"/><path class="cls-4" d="M35.11,35.42c-8.62-.07-2.79-13.32.14-12.52,3.37,1.07,3,12.62-.14,12.52Z"/><path class="cls-4" d="M41.22,31.09c-.84,2.5-2.36,3-2.19-.07.19-3.5,2.48-2.66,4.93-4,2-1.12,3.14-5.21,6.64-2.77,1.56,1.09,3.35.18,3.85,1.83,0-.08-4.54,10.31-2,10.31-5,0-2.77-5.92-.87-9.9-1.85.88-4.84,6.69-2.38,7.64-1.28,1.69-5.19,3.94-7.23,2.3-1.55-1.25-.69-3.33-.71-5.34Z"/><path class="cls-4" d="M45.32,40.7c-3.49,1-8.12-1.21-2.51-2.34,3.48-.7,7.19.78,2.51,2.34Z"/><path class="cls-4" d="M49.69,40.56c-.74-1.66.56-3.64,2.68-2.2,1.85,1.25-.85,3.11-2.68,2.2Z"/><path class="cls-4" d="M46.74,45.22c-2.41-.75-10.54-.56-5.22-2.76,1.64-.68,10.15.1,5.22,2.76Z"/><path class="cls-4" d="M50,44.87c0-1-.51-2.68,1.35-1.95,2.23.88-1.35,2.65-1.35,1.95Z"/><path class="cls-4" d="M57.18,48.54c-1.44-1.23-2.89-1.29-4.23,0-1.79-3.29-8.32-2.19-11.37-2.65,1.64,4,14.86,4.78,15.59,2.65Z"/><path class="cls-4" d="M55.28,51c-3.15-.15-6.67-.56-9.65.08,1.86.47,6.4,1.79,2.17,2.92,1.52,2.17,4,2,5.58.13A15.44,15.44,0,0,1,51.83,53c1.67-.3,3.23-1.27,3.44-2.07Z"/><path class="cls-4" d="M58.87,47.08c-5.29-3.11-4-5.43.35-7.59,2.25-1.13,7.32-5.21,9.45-3.85l-9.8,11.44Z"/><path class="cls-5" d="M55.11,39.81c-4.48-4.6,6.69-4.18,8.49-5.8,1.31.44,10.77-8.28,13.07-7.74-1.66,1.94-5.22,8.14-7.77,8.14-2,0-4-.29-5.47,1.11-2.22,2-5.91,3.09-8.31,4.29Z"/><path class="cls-6" d="M56.57,34.18c-2.45,1.32-4.77-3.91-.54-3.4,2.81.34,5.66-.24,8.35.23a8.66,8.66,0,0,1-7.81,3.17Z"/><path class="cls-3" d="M69.21,52.47a5,5,0,0,1,.21,2c-.11.87-1,2.92-2.17,2.34a18.23,18.23,0,0,1-3.19-2.55c.8-.94,1.51-1.75,2.85-1.29.37.12.69,0,.3-.26s-3.11-2-3.26-1.8.53.87.22,1.47a7,7,0,0,1-.93,1.22c-.72-.61-1.92-1.25-1.06-2.26A3.69,3.69,0,0,1,64.28,50c.57-.11,1.84.39,2-.22L63,48.21c.18.8-3.35,4.52-4.13,5.46-.11.14-.66.61-.66.8,0,.43.62.1.66.08.49-.18,6.82,5.11,7,5.47s-.22.57,0,.73c0,0,.23.22.25.18.39-.47,4.52-6,5.37-6.22-.79-1.21-1.59-2.43-2.37-3.65C68.5,51.33,69.08,52,69.21,52.47Z"/><path class="cls-3" d="M63,59.17c-2.08-1.34-5.6,1.28-6.12,1.53-1,.49-1.79-.54-1.25-1.5A2.77,2.77,0,0,1,58,57.91c.28,0,1.35.2,1.46,0s.23-.22,0-.35l-2.57-1.73c-.18,1.06-1.38,1.73-2.08,2.44a4.7,4.7,0,0,0-1.52,3.16A3,3,0,0,0,55,64.11a3.31,3.31,0,0,0,3.32-.51,19.18,19.18,0,0,1,1.92-1.17c1-.47,2.3-.06,2,1.27A3.6,3.6,0,0,1,59.79,66,3.29,3.29,0,0,1,57.92,66c-.43-.14-1-.73-1.23-.11l3.48,2.54a2.33,2.33,0,0,1,1.09-1.56,11.68,11.68,0,0,0,2-2.13C64.41,63,64.79,60.62,63,59.17Z"/><path class="cls-3" d="M63,59.17c.92.6-.59-.49,0,0Z"/><path class="cls-3" d="M92.28,21.85Z"/><path class="cls-3" d="M99.74,19.64c-.73.73-8.42-2.34-9-2.76-.29-.12-.3-1.32-.71-.83l-1.22,1.46L87.58,19c-.26.31-.54.46,0,.72.84-.42,5.42,7.35,5,8.46-.72.38-6.92-5.06-7.08-5.42-.05-.15.27-1-.21-.94-.23,0-.74.9-.89,1.07L83.48,24c.33.48.52,0,1,0a13.15,13.15,0,0,1,2.24,1.66c-.72,0-2.68.13-2.93.11-.9.11-.42-.66-1-.93l-2.28,2.76-1.33,1.61c-.05.07,0,0,0,.11.33.27.1.17.57,0s6.56,4.93,6.78,5.19c.38.45-.15,1,.41,1.22l1.8-2.18c.09-.11.14-.1,0-.2-.43-.35-.48.21-1,.15s-4.39-3.37-5.89-4.61l8.2-.3c.3,0,1.14.9,1.07,1.22s-.46.56.05.79c.48-.58,1-1.15,1.46-1.73h0l.23-.28a.74.74,0,0,0,.21-.26l.17-.21c.42-.48,1.8-2,1.63-2.15-.46-.4-.68.47-1.3-.05a12.9,12.9,0,0,1-1.44-2.16c-.26-.45.61-.9,1-1.12.78-.48,3.25-1.18,3.48.35,0,.26-.27.55-.08.7s.2.24.27.16l3.3-4A1.47,1.47,0,0,0,99.74,19.64ZM92.36,21.8h0l-.08.05.08-.05a5.71,5.71,0,0,0-1,.76l-1.56-2.69,3.52,1.48A3.73,3.73,0,0,0,92.36,21.8Z"/><path class="cls-3" d="M82.62,33a5.48,5.48,0,1,0,.59,7.6A5.38,5.38,0,0,0,82.62,33Zm-.28,6.61,0,0c-1.23,1.29-3.36.1-4.51-.73s-3.11-2.57-1.86-4.1c1.06-1.29,3.12-.23,4.19.48s3.41,2.6,2.28,4.22C82.49,39.43,82.54,39.37,82.33,39.63Z"/><path class="cls-3" d="M82.62,33c1.17,1-.25-.21,0,0Z"/><path class="cls-3" d="M82.31,39.65l0,0,.08-.11Z"/><path class="cls-3" d="M76,42.14c.11.09.27.22-.06-.06-2.83-2.13-6.19-1.5-8.4,1.16l-3,3.57c.35.51.76-.12,1.27.18s6.24,5.1,6.34,5.37c.16.46-.25.55.14.88A41.39,41.39,0,0,0,77.29,47,4.34,4.34,0,0,0,76,42.14Zm-1.32,6.75c-.24.3,0,.05-.66.65-.31.29-6.44-4.68-6.19-4.94a4.35,4.35,0,0,1,3.58-1.3C73.62,43.86,76.64,46.56,74.71,48.89Z"/></g></g></g></symbol><symbol id="icon-map-bullet" viewBox="0 0 27 27"><title>map__bullet</title><g id="&#x421;&#x43B;&#x43E;&#x439;_2" data-name="&#x421;&#x43B;&#x43E;&#x439; 2"><g id="Layer_1" data-name="Layer 1"><circle class="cls-1" cx="13.5" cy="13.5" r="13.5"/><circle class="cls-2" cx="13.5" cy="13.5" r="8.36"/></g></g></symbol><symbol id="icon-photo-like" viewBox="0 0 22 20">

<title>foto_like</title>
<g fill="#b2b2b2" id="&#x421;&#x43B;&#x43E;&#x439;_2" data-name="&#x421;&#x43B;&#x43E;&#x439; 2"><g id="Layer_1" data-name="Layer 1"><g id="Page-1"><g id="Core"><g id="thumb-up"><g id="Shape"><path class="cls-1" d="M8,19a1,1,0,0,1-1-1V8a.81.81,0,0,1,.2-.6l.06,0,6-6,.29.27a1,1,0,0,1,.17.45v.19L12.46,8H20a.93.93,0,0,1,.9,1v2a1.84,1.84,0,0,1,0,.3l-3,7.11A1,1,0,0,1,17,19ZM1,19V9H3V19Z"/><path d="M12.38,3.65l-.64,2.93L11.22,9H19.9v2.06L17,18H8V8H8l4.37-4.37M2,10v0M13.2,0,6.6,6.6A1.68,1.68,0,0,0,6,8V18a2,2,0,0,0,2,2h9a2,2,0,0,0,1.8-1.2l3-7.1a1.69,1.69,0,0,0,.1-.7V9A1.92,1.92,0,0,0,20,7H13.7l1-4.6V2.1A2.1,2.1,0,0,0,14.3,1L13.2,0ZM4,8H0V20H4V8ZM22,9V9Zm0,0h0Z"/></g></g></g></g></g></g>
</symbol><symbol id="icon-social-fb" viewBox="0 0 8.67 18.94"><title>icon_facebook</title><g id="&#x421;&#x43B;&#x43E;&#x439;_2" data-name="&#x421;&#x43B;&#x43E;&#x439; 2"><g id="Layer_1" data-name="Layer 1"><path d="M6.28,3.36h2.4V0H5.79C2.66.18,1.54,2.39,1.95,6.11H0V9.63H2v9.31H5.8V9.63H8.65V6.11H5.79C5.77,5.07,5.75,3.71,6.28,3.36Z"/></g></g></symbol><symbol id="icon-social-tw" viewBox="0 0 17.5 14.66"><title>icon_twitter</title><g id="&#x421;&#x43B;&#x43E;&#x439;_2" data-name="&#x421;&#x43B;&#x43E;&#x439; 2"><g id="Layer_1" data-name="Layer 1"><g id="W6EeEF"><path d="M11.28.15A3.29,3.29,0,0,1,15,1.3c.69-.23,1.37-.47,2.07-.69a2.26,2.26,0,0,1-.88,1.73,1.64,1.64,0,0,0,1.34-.48,2.9,2.9,0,0,1-1.61,2c-.24,6.59-3.27,11-10.38,10.82H5c-.42,0-4.29-.45-5-1.84a6.57,6.57,0,0,0,4.84-1.15c-1-.29-2.76-.46-3.07-2.88A2.14,2.14,0,0,0,3,8.9C1.76,8.07.38,7.37.46,5.22a2,2,0,0,0,1.38.46C1.12,5.44-.19,2.4.92.84,2.79,2.65,4.77,4.36,8.29,4.53,8.51,2.29,9.46.79,11.28.15Z"/></g></g></g></symbol><symbol id="icon-social-yt" viewBox="0 0 19.98 14.02"><title>icon_youtoobe</title><g id="&#x421;&#x43B;&#x43E;&#x439;_2" data-name="&#x421;&#x43B;&#x43E;&#x439; 2"><g id="Layer_1" data-name="Layer 1"><path d="M17.14,0H2.83A2.84,2.84,0,0,0,0,2.83v8.35A2.84,2.84,0,0,0,2.83,14H17.14A2.84,2.84,0,0,0,20,11.18V2.83A2.84,2.84,0,0,0,17.14,0ZM7,10.39V3.62L13.8,7Z"/></g></g></symbol><symbol id="icon-video-forward" viewBox="0 0 30 22.36"><title>video_forward</title><g id="&#x421;&#x43B;&#x43E;&#x439;_2" data-name="&#x421;&#x43B;&#x43E;&#x439; 2"><g id="Layer_1" data-name="Layer 1"><polygon class="cls-1" points="30 11.18 10.13 0 10.13 5.7 0 0 0 22.36 10.13 16.66 10.13 22.36 30 11.18"/></g></g></symbol><symbol id="icon-video-fullscreen" viewBox="0 0 20 20"><title>video_fullscreen</title><g id="&#x421;&#x43B;&#x43E;&#x439;_2" data-name="&#x421;&#x43B;&#x43E;&#x439; 2"><g id="Layer_1" data-name="Layer 1"><polygon class="cls-1" points="0 0 0 3 0 6 3 6 3 3 6 3 6 0 3 0 0 0"/><polygon class="cls-1" points="3 14 0 14 0 17 0 20 3 20 6 20 6 17 3 17 3 14"/><polygon class="cls-1" points="17 0 14 0 14 3 17 3 17 6 20 6 20 3 20 0 17 0"/><polygon class="cls-1" points="17 17 14 17 14 20 17 20 20 20 20 17 20 14 17 14 17 17"/></g></g></symbol><symbol id="icon-video-play" viewBox="0 0 30 33.75"><title>video_play</title><g id="&#x421;&#x43B;&#x43E;&#x439;_2" data-name="&#x421;&#x43B;&#x43E;&#x439; 2"><g id="Layer_1" data-name="Layer 1"><polygon class="cls-1" points="0 33.75 0 0 30 16.88 0 33.75"/></g></g></symbol><symbol id="icon-video-replay" viewBox="0 0 16 20"><title>video_replay</title><g id="&#x421;&#x43B;&#x43E;&#x439;_2" data-name="&#x421;&#x43B;&#x43E;&#x439; 2"><g id="Layer_1" data-name="Layer 1"><path class="cls-1" d="M8,4V0L3,5l5,5V6a6,6,0,1,1-6,6H0A8,8,0,1,0,8,4Z"/></g></g></symbol><symbol id="icon-video-rewind" viewBox="0 0 30 22.36"><title>video_rewind</title><g id="&#x421;&#x43B;&#x43E;&#x439;_2" data-name="&#x421;&#x43B;&#x43E;&#x439; 2"><g id="Layer_1" data-name="Layer 1"><polygon class="cls-1" points="0 11.18 19.87 0 19.87 5.7 30 0 30 22.36 19.87 16.66 19.87 22.36 0 11.18"/></g></g></symbol><symbol id="icon-video-subtitle" viewBox="0 0 32 20"><title>video_subtitle</title><g id="&#x421;&#x43B;&#x43E;&#x439;_2" data-name="&#x421;&#x43B;&#x43E;&#x439; 2"><g id="Layer_1" data-name="Layer 1"><path class="cls-1" d="M29,0H3A3,3,0,0,0,0,3V17a3,3,0,0,0,3,3H29a3,3,0,0,0,3-3V3A3,3,0,0,0,29,0ZM14.4,15.85a8.58,8.58,0,0,1-1.68.16,6,6,0,0,1-2-.32,4.21,4.21,0,0,1-1.65-1A5.13,5.13,0,0,1,8,12.79,8.12,8.12,0,0,1,7.55,10,7.56,7.56,0,0,1,8,7.15,5.2,5.2,0,0,1,9.25,5.3a4.53,4.53,0,0,1,1.68-1A5.86,5.86,0,0,1,12.78,4a9,9,0,0,1,1.68.13,6.07,6.07,0,0,1,1.13.31l-.45,1.92a3.31,3.31,0,0,0-.9-.26A8.27,8.27,0,0,0,13,6a2.76,2.76,0,0,0-2.21,1,4.59,4.59,0,0,0-.84,3,6.27,6.27,0,0,0,.2,1.63,3.51,3.51,0,0,0,.6,1.26,2.78,2.78,0,0,0,1,.81,3.19,3.19,0,0,0,1.4.29,4.55,4.55,0,0,0,1.26-.15,3.71,3.71,0,0,0,.89-.38l.46,1.84A3.48,3.48,0,0,1,14.4,15.85Zm8.7,0a8.59,8.59,0,0,1-1.68.16,6,6,0,0,1-2-.32,4.21,4.21,0,0,1-1.65-1,5.13,5.13,0,0,1-1.13-1.87A8.12,8.12,0,0,1,16.25,10a7.56,7.56,0,0,1,.47-2.85A5.2,5.2,0,0,1,17.94,5.3a4.53,4.53,0,0,1,1.68-1A5.86,5.86,0,0,1,21.47,4a9,9,0,0,1,1.68.13,6,6,0,0,1,1.13.31l-.45,1.92a3.29,3.29,0,0,0-.9-.26A8.28,8.28,0,0,0,21.67,6a2.76,2.76,0,0,0-2.21,1,4.59,4.59,0,0,0-.84,3,6.28,6.28,0,0,0,.2,1.63,3.51,3.51,0,0,0,.6,1.26,2.77,2.77,0,0,0,1,.81,3.19,3.19,0,0,0,1.4.29,4.55,4.55,0,0,0,1.26-.15,3.71,3.71,0,0,0,.89-.38l.46,1.84A3.48,3.48,0,0,1,23.1,15.85Z"/></g></g></symbol><symbol id="icon-white-separator" viewBox="0 0 758.1 38"><title>white.svg</title><g id="&#x421;&#x43B;&#x43E;&#x439;_2" data-name="&#x421;&#x43B;&#x43E;&#x439; 2"><g id="&#x421;&#x43B;&#x43E;&#x439;_1-2" data-name="&#x421;&#x43B;&#x43E;&#x439; 1"><path class="cls-1" d="M0,.5l758,1-374,36-207-20Z"/></g></g></symbol></svg>