<?xml version="1.0" encoding="utf-8"?><!DOCTYPE svg PUBLIC "-//W3C//DTD SVG 1.1//EN" "http://www.w3.org/Graphics/SVG/1.1/DTD/svg11.dtd"><svg viewBox="0 0 488.936 488.936" xmlns="http://www.w3.org/2000/svg" xmlns:xlink="http://www.w3.org/1999/xlink"><style>:root>svg{display:none}:root>svg:target{display:block}</style><svg viewBox="0 0 20 20" id="basket-icon" xmlns="http://www.w3.org/2000/svg"><path d="M6 16c-1.1 0-1.99.9-1.99 2S4.9 20 6 20s2-.9 2-2-.9-2-2-2zM0 0v2h2l3.6 7.59-1.35 2.45c-.16.28-.25.61-.25.96 0 1.1.9 2 2 2h12v-2H6.42c-.14 0-.25-.11-.25-.25l.03-.12.9-1.63h7.45c.75 0 1.41-.41 1.75-1.03l3.58-6.49A1.003 1.003 0 0019 2H4.21l-.94-2H0zm16 16c-1.1 0-1.99.9-1.99 2s.89 2 1.99 2 2-.9 2-2-.9-2-2-2z"/></svg><svg viewBox="0 0 30 30" id="cancel-icon" xmlns="http://www.w3.org/2000/svg"><path d="M15 3C8.373 3 3 8.373 3 15s5.373 12 12 12 12-5.373 12-12S21.627 3 15 3zm1.414 12l3.293 3.293a.999.999 0 11-1.414 1.414L15 16.414l-3.293 3.293a.999.999 0 11-1.414-1.414L13.586 15l-3.293-3.293a.999.999 0 111.414-1.414L15 13.586l3.293-3.293a.999.999 0 111.414 1.414L16.414 15z"/></svg><svg viewBox="0 0 488.936 488.936" id="delete-icon" xmlns="http://www.w3.org/2000/svg"><path d="M381.16 111.948H107.376c-6.468 0-12.667 2.819-17.171 7.457-4.504 4.649-6.934 11.014-6.738 17.477l9.323 307.69c.39 12.92 10.972 23.312 23.903 23.312h20.136v-21.012c0-24.121 19.368-44.049 43.488-44.049h127.896c24.131 0 43.893 19.928 43.893 44.049v21.012h19.73c12.933 0 23.52-10.346 23.913-23.268l9.314-307.7c.195-6.462-2.234-12.863-6.738-17.513-4.504-4.636-10.691-7.455-17.165-7.455z"/><path d="M309.166 435.355H181.271c-6.163 0-11.915 4.383-11.915 11.516v30.969c0 6.672 5.342 11.096 11.915 11.096h127.895c6.323 0 11.366-4.773 11.366-11.096v-30.969c0-6.31-5.043-11.516-11.366-11.516zM427.696 27.106C427.696 12.138 415.563 0 400.591 0H88.344C73.372 0 61.239 12.138 61.239 27.106v30.946c0 14.973 12.133 27.106 27.105 27.106H400.59c14.973 0 27.105-12.133 27.105-27.106l.001-30.946z"/></svg><svg data-name="Layer 1" viewBox="0 0 17.6 17.6" id="search-icon" xmlns="http://www.w3.org/2000/svg"><path d="M17.27 15.73l-3.41-3.42a7.75 7.75 0 10-1.54 1.54l3.42 3.42a1 1 0 00.77.33 1.1 1.1 0 001.1-1.1 1 1 0 00-.34-.77zM2.2 7.7a5.5 5.5 0 115.5 5.5 5.5 5.5 0 01-5.5-5.5z"/></svg><svg fill="none" viewBox="0 0 54 54" id="star-icon" xmlns="http://www.w3.org/2000/svg"><g filter="url(#efilter0_d)"><path d="M26.954 16l3.196 7.59 7.85.864-5.934 5.476L33.801 38l-6.847-4.227L20.2 38l1.735-8.07L16 24.454l7.85-.864L26.954 16z" fill="#4AF6CD"/></g><defs><filter id="efilter0_d" x="0" y="0" width="54" height="54" filterUnits="userSpaceOnUse" color-interpolation-filters="sRGB"><feFlood flood-opacity="0" result="BackgroundImageFix"/><feColorMatrix in="SourceAlpha" values="0 0 0 0 0 0 0 0 0 0 0 0 0 0 0 0 0 0 127 0"/><feOffset/><feGaussianBlur stdDeviation="8"/><feColorMatrix/><feBlend in2="BackgroundImageFix" result="effect1_dropShadow"/><feBlend in="SourceGraphic" in2="effect1_dropShadow" result="shape"/></filter></defs></svg><svg viewBox="0 0 20 19" id="wishlist-icon" xmlns="http://www.w3.org/2000/svg"><path d="M14.5 0c-1.74 0-3.41.81-4.5 2.09C8.91.81 7.24 0 5.5 0 2.42 0 0 2.42 0 5.5c0 3.78 3.4 6.86 8.55 11.54L10 18.35l1.45-1.32C16.6 12.36 20 9.28 20 5.5 20 2.42 17.58 0 14.5 0zm-4.4 15.55l-.1.1-.1-.1C5.14 11.24 2 8.39 2 5.5 2 3.5 3.5 2 5.5 2c1.54 0 3.04.99 3.57 2.36h1.87C11.46 2.99 12.96 2 14.5 2c2 0 3.5 1.5 3.5 3.5 0 2.89-3.14 5.74-7.9 10.05z"/></svg></svg>